SplineFontDB: 3.2
FontName: SingScript.sg_oas
FullName: SingScript.sg "oas" module
FamilyName: SingScript.sg
Weight: Regular
Copyright: Copyright (c) 2025, 05524F.sg (Singapore)
Version: v2
ItalicAngle: 0
UnderlinePosition: -100
UnderlineWidth: 67
Ascent: 600
Descent: 300
InvalidEm: 0
sfntRevision: 0x00010000
LayerCount: 2
Layer: 0 0 "Back" 1
Layer: 1 0 "Fore" 0
XUID: [1021 768 647112374 32286]
StyleMap: 0x0040
FSType: 0
OS2Version: 4
OS2_WeightWidthSlopeOnly: 0
OS2_UseTypoMetrics: 1
CreationTime: 1740441635
ModificationTime: 1753877796
PfmFamily: 65
TTFWeight: 400
TTFWidth: 5
LineGap: 81
VLineGap: 0
Panose: 3 0 5 3 0 0 0 0 0 0
OS2TypoAscent: 600
OS2TypoAOffset: 0
OS2TypoDescent: -300
OS2TypoDOffset: 0
OS2TypoLinegap: 81
OS2WinAscent: 590
OS2WinAOffset: 0
OS2WinDescent: 233
OS2WinDOffset: 0
HheadAscent: 590
HheadAOffset: 0
HheadDescent: -233
HheadDOffset: 0
OS2SubXSize: 585
OS2SubYSize: 630
OS2SubXOff: 0
OS2SubYOff: 126
OS2SupXSize: 585
OS2SupYSize: 630
OS2SupXOff: 0
OS2SupYOff: 432
OS2StrikeYSize: 44
OS2StrikeYPos: 232
OS2CapHeight: 467
OS2XHeight: 300
OS2Vendor: '5524'
OS2CodePages: 00000001.00000000
OS2UnicodeRanges: 80000003.10000000.00000000.00000000
MarkAttachClasses: 1
DEI: 91125
LangName: 1033 "" "" "" "" "" "Version v2"
Encoding: Custom
UnicodeInterp: none
NameList: AGL For New Fonts
DisplaySize: -48
AntiAlias: 1
FitToEm: 0
WidthSeparation: 50
WinInfo: 0 27 9
BeginPrivate: 6
BlueValues 21 [0 0 300 300 467 467]
OtherBlues 11 [-233 -233]
StdHW 4 [67]
StdVW 4 [67]
StemSnapH 33 [52 59 63 67 73 78 86 93 159 167]
StemSnapV 4 [67]
EndPrivate
Grid
0 -200 m 24
 351 -200 549 -200 900 -200 c 1048
0 -233 m 24
 351 -233 549 -233 900 -233 c 1048
250 211 m 24
 289 211 311 211 350 211 c 1048
250 100 m 24
 289 100 311 100 350 100 c 1048
250 -100 m 24
 289 -100 311 -100 350 -100 c 1048
250 -255 m 24
 289 -255 311 -255 350 -255 c 1048
100 511 m 24
 139 511 161 511 200 511 c 1048
100 400 m 24
 139 400 161 400 200 400 c 1048
100 200 m 24
 139 200 161 200 200 200 c 1048

StartChar: uni24EA
Encoding: 0 9450 0
Width: 817
Flags: HW
HStem: -83 67<359.5 426.5> 317 67<370.5 460.5>
VStem: 264.5 67<13 262> 485.5 67<83 292>
LayerCount: 2
Fore
SplineSet
92 150 m 4
 92 -24 234 -166 408 -166 c 4
 582 -166 725 -24 725 150 c 4
 725 324 582 466 408 466 c 4
 235 466 92 323 92 150 c 4
25 150 m 4
 25 361 197 534 408 534 c 4
 619 534 792 361 792 150 c 4
 792 -61 619 -234 408 -234 c 4
 196 -234 25 -62 25 150 c 4
408.5 317 m 2
 359.5 317 331.5 247 331.5 122 c 0
 331.5 93 332.5 70 334.5 53 c 0
 338.5 19 370.5 -16 396.5 -16 c 0
 438.5 -16 485.5 103 485.5 209 c 0
 485.5 281 461.5 317 414.5 317 c 2
 408.5 317 l 2
552.5 209 m 0
 552.5 49 481.5 -83 396.5 -83 c 0
 334.5 -83 276.5 -25 268.5 45 c 0
 265.5 64 264.5 89 264.5 122 c 0
 264.5 247 293.5 330 350.5 366 c 0
 368.5 378 390.5 384 414.5 384 c 0
 504.5 384 552.5 323 552.5 209 c 0
EndSplineSet
EndChar

StartChar: uni2460
Encoding: 1 9312 1
Width: 817
Flags: HW
HStem: -83 21G<395.5 413.5> 364 20G<403.5 421.5>
VStem: 371.5 66<-80 146> 374.5 67<-48 378>
LayerCount: 2
Fore
SplineSet
92 150 m 4
 92 -24 234 -166 408 -166 c 4
 582 -166 725 -24 725 150 c 4
 725 324 582 466 408 466 c 4
 235 466 92 323 92 150 c 4
25 150 m 4
 25 361 197 534 408 534 c 4
 619 534 792 361 792 150 c 4
 792 -61 619 -234 408 -234 c 4
 196 -234 25 -62 25 150 c 4
445.5 351 m 0xd0
 445.5 340 444.5 298 443.5 257 c 0
 442.5 216 441.5 174 441.5 163 c 2
 441.5 149 l 2xd0
 439.5 95 438.5 44 437.5 -50 c 0
 437.5 -68 422.5 -83 404.5 -83 c 0
 386.5 -83 371.5 -67 371.5 -49 c 0xe0
 371.5 -30 371.5 -12 374.5 137 c 2
 374.5 159 l 2
 374.5 160 374.5 162 374.5 163 c 0
 374.5 164 375.5 166 375.5 167 c 0
 376.5 210 376.5 210 379.5 351 c 0
 379.5 369 394.5 384 412.5 384 c 0
 430.5 384 445.5 369 445.5 351 c 0xd0
EndSplineSet
EndChar

StartChar: uni2461
Encoding: 2 9313 2
Width: 817
Flags: HW
HStem: -83 67<363 537> -72 66<387 556> 364 20G<421 461>
LayerCount: 2
Fore
SplineSet
92 150 m 4
 92 -24 234 -166 408 -166 c 4
 582 -166 725 -24 725 150 c 4
 725 324 582 466 408 466 c 4
 235 466 92 323 92 150 c 4
25 150 m 4
 25 361 197 534 408 534 c 4
 619 534 792 361 792 150 c 4
 792 -61 619 -234 408 -234 c 4
 196 -234 25 -62 25 150 c 4
435 317 m 1xa0
 398 312 361 289 333 271 c 0
 315 260 300 251 292 251 c 0
 274 251 258 267 258 285 c 0
 258 296 264 306 273 312 c 0
 338 358 399 384 442 384 c 0
 479 384 504 363 504 331 c 0
 504 304 495 243 487 217 c 0
 475 175 468 163 418 80 c 0
 376 9 374 7 362 -15 c 1
 367 -16 368 -16 386 -16 c 0xa0
 409 -16 451 -13 521 -6 c 0
 524 -6 525 -6 526 -5 c 0
 544 -5 559 -20 559 -38 c 0
 559 -55 546 -70 529 -72 c 0x60
 486 -77 404 -83 386 -83 c 0
 320 -83 288 -65 288 -28 c 0
 288 -20 290 -11 293 -5 c 0
 326 54 343 84 371 132 c 0
 419 213 427 235 435 317 c 1xa0
EndSplineSet
EndChar

StartChar: uni2462
Encoding: 3 9314 3
Width: 817
Flags: HW
HStem: -83 21G<312 324> -77 62<321 351 351 400> 313 71<285 466>
VStem: 446 67<45 82>
LayerCount: 2
Fore
SplineSet
92 150 m 4
 92 -24 234 -166 408 -166 c 4
 582 -166 725 -24 725 150 c 4
 725 324 582 466 408 466 c 4
 235 466 92 323 92 150 c 4
25 150 m 4
 25 361 197 534 408 534 c 4
 619 534 792 361 792 150 c 4
 792 -61 619 -234 408 -234 c 4
 196 -234 25 -62 25 150 c 4
446 46 m 2x70
 446 66 424 86 402 106 c 0
 380 126 359 146 359 166 c 0
 359 211 398 243 431 270 c 0
 447 283 462 295 469 307 c 1
 454 313 426 317 393 317 c 0
 365 317 339 316 315 313 c 2
 312 313 l 2
 294 313 279 328 279 346 c 0
 279 363 292 378 309 380 c 0
 332 383 357 384 393 384 c 0
 489 384 538 359 538 310 c 0
 538 273 503 244 472 218 c 0
 452 201 433 185 427 170 c 1
 436 161 440 158 448 151 c 0
 493 112 513 79 513 46 c 0
 513 18 488 -17 451 -41 c 0
 428 -55 409 -62 352 -76 c 0
 351 -76 351 -76 351 -77 c 1
 350 -77 l 2x70
 343 -80 327 -83 321 -83 c 0xb0
 303 -83 287 -67 287 -49 c 0
 287 -30 297 -20 323 -15 c 0
 325 -15 354 -8 358 -7 c 0
 425 9 435 15 445 44 c 1
 446 45 l 1
 446 46 l 2x70
EndSplineSet
EndChar

StartChar: uni2463
Encoding: 4 9315 4
Width: 817
Flags: HW
HStem: -83 21G<388 406> 84 68<324 372> 198 20G<525 539> 364 20G<288 306 418 436>
VStem: 254 67<152 362> 264 67<205 381> 363 67<-80 85> 394 67<189 380>
LayerCount: 2
Fore
SplineSet
92 150 m 4
 92 -24 234 -166 408 -166 c 4
 582 -166 725 -24 725 150 c 4
 725 324 582 466 408 466 c 4
 235 466 92 323 92 150 c 4
25 150 m 4
 25 361 197 534 408 534 c 4
 619 534 792 361 792 150 c 4
 792 -61 619 -234 408 -234 c 4
 196 -234 25 -62 25 150 c 4
448 181 m 1xf9
 478 194 494 203 504 209 c 0
 515 215 520 218 530 218 c 0
 548 218 563 203 563 185 c 0
 563 173 557 162 547 156 c 0
 518 139 482 122 442 107 c 0
 441 106 432 -17 430 -46 c 0
 430 -50 430 -52 430 -52 c 0
 429 -69 415 -83 397 -83 c 0
 379 -83 363 -67 363 -49 c 0
 363 -47 364 -30 366 -1 c 0
 368 21 370 51 373 87 c 1
 364 86 345 84 340 84 c 0
 279 84 254 119 254 204 c 0xfa
 254 222 254 222 264 352 c 0
 265 370 279 384 297 384 c 0
 315 384 331 368 331 350 c 0xf4
 331 335 328 306 326 277 c 0
 324 248 321 219 321 204 c 0
 321 175 323 160 328 152 c 1
 330 152 l 2
 333 151 334 151 340 151 c 0
 350 151 363 153 379 157 c 1
 380 159 380 162 380 165 c 0
 389 269 391 290 394 353 c 0
 395 371 409 384 427 384 c 0
 445 384 461 368 461 350 c 0
 461 348 461 348 448 181 c 1xf9
EndSplineSet
EndChar

StartChar: uni2464
Encoding: 5 9316 5
Width: 817
Flags: HW
HStem: -92 67<337.5 455.5> 315 68<349.5 548.5>
VStem: 277.5 67<205 318> 474.5 67<-5 82>
LayerCount: 2
Fore
SplineSet
92 150 m 4
 92 -24 234 -166 408 -166 c 4
 582 -166 725 -24 725 150 c 4
 725 324 582 466 408 466 c 4
 235 466 92 323 92 150 c 4
25 150 m 4
 25 361 197 534 408 534 c 4
 619 534 792 361 792 150 c 4
 792 -61 619 -234 408 -234 c 4
 196 -234 25 -62 25 150 c 4
394.5 387 m 2
 401.5 387 l 2
 420.5 387 431.5 387 501.5 383 c 0
 504.5 383 507.5 383 510.5 383 c 0
 513.5 383 516.5 382 519.5 382 c 0
 537.5 381 551.5 367 551.5 349 c 0
 551.5 331 536.5 315 518.5 315 c 2
 513.5 315 l 1
 456.5 319 416.5 321 394.5 321 c 0
 374.5 321 357.5 320 349.5 318 c 1
 345.5 291 344.5 280 344.5 270 c 0
 344.5 213 356.5 199 433.5 167 c 0
 516.5 133 541.5 107 541.5 56 c 0
 541.5 -34 487.5 -92 404.5 -92 c 0
 334.5 -92 265.5 -54 265.5 -16 c 0
 265.5 2 281.5 18 299.5 18 c 0
 312.5 18 324.5 10 329.5 -1 c 1
 347.5 -15 378.5 -25 404.5 -25 c 0
 450.5 -25 473.5 1 474.5 54 c 2
 474.5 56 l 2
 474.5 78 448.5 88 414.5 101 c 0
 379.5 115 337.5 131 308.5 166 c 0
 287.5 190 277.5 224 277.5 270 c 0
 277.5 299 284.5 339 292.5 356 c 0
 303.5 379 329.5 387 394.5 387 c 2
EndSplineSet
EndChar

StartChar: uni2465
Encoding: 6 9317 6
Width: 817
Flags: HW
HStem: -83 67<370 446> 364 20G<456 471>
VStem: 455 67<-6 82>
LayerCount: 2
Fore
SplineSet
92 150 m 4
 92 -24 234 -166 408 -166 c 4
 582 -166 725 -24 725 150 c 4
 725 324 582 466 408 466 c 4
 235 466 92 323 92 150 c 4
25 150 m 4
 25 361 197 534 408 534 c 4
 619 534 792 361 792 150 c 4
 792 -61 619 -234 408 -234 c 4
 196 -234 25 -62 25 150 c 4
404 -16 m 0
 433 -16 455 3 455 29 c 0
 455 64 424 107 393 114 c 1
 375 71 365 41 362 22 c 1
 368 -3 383 -16 404 -16 c 0
496 350 m 0
 496 346 495 345 489 332 c 0
 480 314 461 274 419 176 c 1
 477 157 522 92 522 29 c 0
 522 -34 470 -83 404 -83 c 0
 348 -83 295 -33 295 21 c 0
 295 58 344 180 432 365 c 0
 437 376 449 384 462 384 c 0
 480 384 496 368 496 350 c 0
EndSplineSet
EndChar

StartChar: uni2466
Encoding: 7 9318 7
Width: 817
Flags: HW
HStem: -83 21G<441 458> 364 20G<461 496>
VStem: 416 67<-79 67> 466 68<149 304 305 317>
LayerCount: 2
Fore
SplineSet
92 150 m 4
 92 -24 234 -166 408 -166 c 4
 582 -166 725 -24 725 150 c 4
 725 324 582 466 408 466 c 4
 235 466 92 323 92 150 c 4
25 150 m 4
 25 361 197 534 408 534 c 4
 619 534 792 361 792 150 c 4
 792 -61 619 -234 408 -234 c 4
 196 -234 25 -62 25 150 c 4
416 -49 m 0xe0
 416 -3 429 62 442 127 c 0
 455 192 467 258 467 304 c 0
 466 305 l 0
 466 307 l 2
 466 317 l 1
 414 313 347 303 325 299 c 0
 320 298 317 298 317 298 c 0
 299 298 283 314 283 332 c 0
 283 348 294 362 311 365 c 0
 375 376 443 384 479 384 c 0
 512 384 531 372 532 349 c 2
 532 343 l 2
 532 340 533 331 533 323 c 0
 533 315 534 307 534 304 c 0xd0
 534 221 521 155 507 90 c 0
 498 44 488 -1 483 -53 c 0
 481 -70 467 -83 450 -83 c 0
 432 -83 416 -67 416 -49 c 0xe0
EndSplineSet
EndChar

StartChar: uni2467
Encoding: 8 9319 8
Width: 817
Flags: HW
HStem: -83 67<383 456> 317 67<370 432>
VStem: 297 67<4 78 207 305> 457 67<-16 50>
LayerCount: 2
Fore
SplineSet
92 150 m 4
 92 -24 234 -166 408 -166 c 4
 582 -166 725 -24 725 150 c 4
 725 324 582 466 408 466 c 4
 235 466 92 323 92 150 c 4
25 150 m 4
 25 361 197 534 408 534 c 4
 619 534 792 361 792 150 c 4
 792 -61 619 -234 408 -234 c 4
 196 -234 25 -62 25 150 c 4
433 -83 m 0
 359 -83 297 -27 297 40 c 0
 297 66 305 83 343 146 c 1
 309 184 293 221 293 263 c 0
 293 278 295 293 299 308 c 0
 310 350 370 384 431 384 c 0
 473 384 500 362 500 328 c 0
 500 280 480 232 429 155 c 1
 441 143 l 1
 505 85 524 52 524 -2 c 0
 524 -51 488 -83 433 -83 c 0
392 98 m 1
 392 93 385 81 378 69 c 0
 371 57 364 45 364 40 c 2
 364 36 l 1
 369 7 399 -16 433 -16 c 0
 450 -16 457 -12 457 -2 c 0
 457 30 451 40 394 97 c 0
 393 97 393 97 392 98 c 1
431 317 m 2
 408 317 370 302 364 291 c 0
 361 283 360 274 360 263 c 0
 360 242 367 223 381 205 c 1
 415 258 429 289 432 317 c 1
 431 317 l 2
EndSplineSet
EndChar

StartChar: uni2468
Encoding: 9 9320 9
Width: 817
Flags: HW
HStem: -83 21G<473.5 490.5> 159 59<346.5 422.5> 317 67<359.5 435.5>
VStem: 275.5 67<222 300> 474.5 67<6 197>
LayerCount: 2
Fore
SplineSet
92 150 m 4
 92 -24 234 -166 408 -166 c 4
 582 -166 725 -24 725 150 c 4
 725 324 582 466 408 466 c 4
 235 466 92 323 92 150 c 4
25 150 m 4
 25 361 197 534 408 534 c 4
 619 534 792 361 792 150 c 4
 792 -61 619 -234 408 -234 c 4
 196 -234 25 -62 25 150 c 4
342.5 255 m 0
 342.5 233 356.5 218 375.5 218 c 0
 401.5 218 427.5 235 451.5 269 c 1
 439.5 299 420.5 317 400.5 317 c 0
 368.5 317 342.5 290 342.5 255 c 0
448.5 -49 m 0
 448.5 -30 455.5 8 461.5 47 c 0
 467.5 86 474.5 125 474.5 144 c 0
 474.5 166 473.5 181 469.5 198 c 1
 432.5 170 405.5 159 374.5 159 c 0
 314.5 159 275.5 197 275.5 255 c 0
 275.5 326 331.5 384 400.5 384 c 0
 451.5 384 494.5 347 516.5 284 c 2
 526.5 253 l 2
 536.5 215 541.5 180 541.5 144 c 0
 541.5 101 541.5 101 515.5 -55 c 0
 512.5 -72 498.5 -83 482.5 -83 c 0
 464.5 -83 448.5 -67 448.5 -49 c 0
EndSplineSet
EndChar

StartChar: uni24B6
Encoding: 10 9398 10
Width: 817
Flags: HW
HStem: -83 21G<288 304 512 529> 71 66<393 462> 364 20G<437 450>
VStem: 263 65<-79 -38>
LayerCount: 2
Fore
SplineSet
92 150 m 4
 92 -24 234 -166 408 -166 c 4
 582 -166 725 -24 725 150 c 4
 725 324 582 466 408 466 c 4
 235 466 92 323 92 150 c 4
25 150 m 4
 25 361 197 534 408 534 c 4
 619 534 792 361 792 150 c 4
 792 -61 619 -234 408 -234 c 4
 196 -234 25 -62 25 150 c 4
263 -49 m 0
 263 -46 263 -44 264 -43 c 0
 265 -42 266 -41 266 -38 c 0
 285 14 295 47 312 103 c 0
 351 234 373 292 413 366 c 0
 421 378 431 384 443 384 c 0
 456 384 469 375 474 362 c 0
 509 266 523 202 540 55 c 0
 542 36 549 -9 552 -33 c 0
 553 -42 554 -49 554 -49 c 0
 554 -67 538 -83 520 -83 c 0
 503 -83 489 -70 487 -54 c 0
 485 -41 481 -12 471 71 c 1
 453 71 l 2
 452 71 451 71 450 71 c 0
 449 71 448 70 447 70 c 2
 434 70 l 2
 399 69 385 68 370 64 c 1
 362 37 348 -5 328 -61 c 0
 323 -74 311 -83 297 -83 c 0
 279 -83 263 -67 263 -49 c 0
462 138 m 1
 457 178 450 213 437 261 c 1
 421 227 409 193 392 135 c 1
 403 137 408 137 445 137 c 2
 458 137 l 2
 459 137 459 137 460 137 c 0
 461 137 461 138 462 138 c 1
EndSplineSet
EndChar

StartChar: uni24B7
Encoding: 11 9399 11
Width: 817
Flags: HW
HStem: -83 73<347 385> 316 68<383 467>
VStem: 396 67<3 47>
LayerCount: 2
Fore
SplineSet
92 150 m 4
 92 -24 234 -166 408 -166 c 4
 582 -166 725 -24 725 150 c 4
 725 324 582 466 408 466 c 4
 235 466 92 323 92 150 c 4
25 150 m 4
 25 361 197 534 408 534 c 4
 619 534 792 361 792 150 c 4
 792 -61 619 -234 408 -234 c 4
 196 -234 25 -62 25 150 c 4
277 -41 m 0
 277 -36 288 58 298 152 c 0
 308 246 318 339 318 344 c 0
 321 372 345 384 398 384 c 0
 487 384 540 360 540 319 c 0
 540 268 501 219 394 134 c 0
 393 133 393 132 392 132 c 0
 391 132 390 131 389 130 c 1
 414 105 414 105 447 61 c 0
 460 44 463 36 463 20 c 0
 463 -11 447 -33 409 -55 c 0
 384 -71 347 -83 324 -83 c 0
 296 -83 277 -66 277 -41 c 0
383 316 m 1
 383 310 372 213 370 201 c 1
 395 213 461 283 470 307 c 0
 469 308 469 308 468 308 c 0
 446 314 423 317 398 317 c 2
 394 317 l 2
 393 317 393 317 392 317 c 0
 391 317 391 316 390 316 c 2
 383 316 l 1
355 69 m 1
 355 67 355 67 347 -10 c 1
 355 -10 388 9 396 18 c 1
 396 20 l 2
 393 29 383 41 355 69 c 1
EndSplineSet
EndChar

StartChar: uni24B8
Encoding: 12 9400 12
Width: 817
Flags: HW
HStem: -83 68<337.5 449.5> -53 72<445.5 531.5> 364 20G<512.5 526.5>
VStem: 265.5 67<-9 71>
LayerCount: 2
Fore
SplineSet
92 150 m 4
 92 -24 234 -166 408 -166 c 4
 582 -166 725 -24 725 150 c 4
 725 324 582 466 408 466 c 4
 235 466 92 323 92 150 c 4
25 150 m 4
 25 361 197 534 408 534 c 4
 619 534 792 361 792 150 c 4
 792 -61 619 -234 408 -234 c 4
 196 -234 25 -62 25 150 c 4
332.5 15 m 1024x30
378.5 -15 m 0xb0
 394.5 -15 417.5 -6 441.5 2 c 0
 465.5 10 488.5 19 504.5 19 c 0x70
 522.5 19 538.5 3 538.5 -15 c 0xb0
 538.5 -31 516.5 -53 500.5 -53 c 1x70
 446.5 -75 413.5 -83 378.5 -83 c 0
 316.5 -83 265.5 -38 265.5 16 c 0
 265.5 85 378.5 262 494.5 375 c 0
 500.5 381 508.5 384 517.5 384 c 0
 535.5 384 551.5 369 551.5 351 c 0
 551.5 343 547.5 334 540.5 327 c 0
 447.5 237 332.5 65 332.5 16 c 1
 338.5 -6 352.5 -15 378.5 -15 c 0xb0
EndSplineSet
EndChar

StartChar: uni24B9
Encoding: 13 9401 13
Width: 817
Flags: HW
HStem: -83 21G<303.5 314.5> 317 67<372.5 443.5>
VStem: 470.5 67<165 294>
LayerCount: 2
Fore
SplineSet
92 150 m 4
 92 -24 234 -166 408 -166 c 4
 582 -166 725 -24 725 150 c 4
 725 324 582 466 408 466 c 4
 235 466 92 323 92 150 c 4
25 150 m 4
 25 361 197 534 408 534 c 4
 619 534 792 361 792 150 c 4
 792 -61 619 -234 408 -234 c 4
 196 -234 25 -62 25 150 c 4
359.5 384 m 2
 474.5 384 537.5 336 537.5 250 c 0
 537.5 124 428.5 -44 323.5 -81 c 0
 321.5 -82 316.5 -83 312.5 -83 c 0
 294.5 -83 279.5 -68 279.5 -49 c 0
 279.5 58 297.5 272 313.5 357 c 0
 316.5 372 329.5 383 345.5 384 c 2
 359.5 384 l 2
348.5 12 m 1
 412.5 66 470.5 179 470.5 250 c 0
 470.5 291 437.5 314 375.5 317 c 1
 364.5 252 356.5 162 348.5 12 c 1
EndSplineSet
EndChar

StartChar: uni24BA
Encoding: 14 9402 14
Width: 817
Flags: HW
HStem: -83 67<336 493> 85 68<348 518> 317 66<370 545>
VStem: 269 67<-16 81>
LayerCount: 2
Fore
SplineSet
92 150 m 4
 92 -24 234 -166 408 -166 c 4
 582 -166 725 -24 725 150 c 4
 725 324 582 466 408 466 c 4
 235 466 92 323 92 150 c 4
25 150 m 4
 25 361 197 534 408 534 c 4
 619 534 792 361 792 150 c 4
 792 -61 619 -234 408 -234 c 4
 196 -234 25 -62 25 150 c 4
336 -16 m 1
 376 -14 442 -5 474 0 c 0
 485 2 492 3 493 3 c 0
 511 3 527 -13 527 -31 c 0
 527 -47 511 -64 496 -64 c 0
 463 -68 456 -69 442 -71 c 0
 387 -80 355 -83 320 -83 c 2
 302 -83 l 2
 284 -83 270 -68 270 -50 c 2
 270 -34 l 2
 270 -33 270 -32 270 -31 c 0
 270 -30 269 -29 269 -28 c 0
 269 64 282 200 305 344 c 1
 305 375 334 383 452 383 c 0
 490 383 494 383 494 383 c 0
 494 383 491 383 515 382 c 0
 534 381 548 367 548 349 c 0
 548 331 532 316 514 316 c 2
 513 316 l 2
 465 317 465 317 452 317 c 2
 428 317 l 2
 424 317 420 317 416 317 c 0
 412 317 409 318 405 318 c 0
 391 318 380 317 369 315 c 1
 359 248 352 198 348 153 c 1
 487 153 l 2
 505 153 521 137 521 119 c 0
 521 101 505 85 487 85 c 2
 341 85 l 1
 337 37 336 7 336 -16 c 1
EndSplineSet
EndChar

StartChar: uni24BB
Encoding: 15 9403 15
Width: 817
Flags: HW
HStem: -83 21G<312.5 330.5> 124 67<352.5 516.5> 317 67<362.5 529.5>
VStem: 284.5 67<-78 125 190 310>
LayerCount: 2
Fore
SplineSet
92 150 m 4
 92 -24 234 -166 408 -166 c 4
 582 -166 725 -24 725 150 c 4
 725 324 582 466 408 466 c 4
 235 466 92 323 92 150 c 4
25 150 m 4
 25 361 197 534 408 534 c 4
 619 534 792 361 792 150 c 4
 792 -61 619 -234 408 -234 c 4
 196 -234 25 -62 25 150 c 4
352.5 190 m 1
 356.5 190 l 2
 359.5 190 368.5 191 377.5 191 c 0
 386.5 191 394.5 192 397.5 192 c 2
 445.5 192 l 2
 447.5 192 450.5 191 453.5 191 c 0
 456.5 191 460.5 191 462.5 191 c 2
 485.5 191 l 2
 503.5 191 519.5 176 519.5 158 c 0
 519.5 140 505.5 125 487.5 124 c 2
 462.5 124 l 2
 441.5 124 427.5 124 411.5 125 c 2
 397.5 125 l 2
 365.5 125 361.5 125 351.5 123 c 1
 351.5 105 l 2
 351.5 42 352.5 -5 355.5 -45 c 2
 355.5 -49 l 2
 355.5 -67 339.5 -83 321.5 -83 c 0
 303.5 -83 289.5 -69 288.5 -51 c 0
 285.5 4 284.5 45 284.5 105 c 0
 284.5 189 287.5 264 295.5 343 c 0
 296.5 358 308.5 371 323.5 373 c 2
 326.5 373 l 1
 380.5 380 424.5 384 459.5 384 c 0
 515.5 384 532.5 376 532.5 349 c 0
 532.5 331 517.5 315 499.5 315 c 2
 494.5 315 l 2
 476.5 317 471.5 317 459.5 317 c 0
 427.5 317 395.5 315 360.5 310 c 1
 360.5 309 l 0
 356.5 275 356.5 275 352.5 192 c 0
 352.5 191 352.5 191 352.5 190 c 1
EndSplineSet
EndChar

StartChar: uni24BC
Encoding: 16 9404 16
Width: 817
Flags: HW
HStem: -83 21G<471 490> -64 67<341 447> 52 86<396 449> 320 64<490 540>
VStem: 274 67<4 144> 453 67<-77 -45 20 65>
LayerCount: 2
Fore
SplineSet
92 150 m 4
 92 -24 234 -166 408 -166 c 4
 582 -166 725 -24 725 150 c 4
 725 324 582 466 408 466 c 4
 235 466 92 323 92 150 c 4
25 150 m 4
 25 361 197 534 408 534 c 4
 619 534 792 361 792 150 c 4
 792 -61 619 -234 408 -234 c 4
 196 -234 25 -62 25 150 c 4
341 3 m 1x7c
 355 3 365 5 381 9 c 0
 397 13 418 18 452 23 c 0
 452 24 453 24 453 25 c 0
 453 26 453 26 453 27 c 2
 453 41 l 2
 453 44 453 44 451 66 c 1
 404 52 404 52 403 52 c 0
 385 52 369 68 369 86 c 0
 369 101 380 114 395 118 c 0
 402 119 411 123 420 126 c 0
 435 132 453 138 469 138 c 0
 490 138 507 125 511 107 c 0
 517 83 520 61 520 41 c 0
 520 29 519 18 515 -43 c 1
 515 -49 l 2
 515 -67 499 -83 481 -83 c 0xbc
 461 -83 448 -69 448 -48 c 2
 448 -45 l 1
 437 -47 425 -50 412 -53 c 0
 389 -58 364 -64 340 -64 c 0
 291 -64 274 -43 274 17 c 0
 274 190 349 313 495 381 c 0
 499 383 504 384 509 384 c 0
 527 384 543 368 543 350 c 0
 543 337 535 325 523 320 c 0
 398 261 341 166 341 17 c 2
 341 3 l 1x7c
EndSplineSet
EndChar

StartChar: uni24BD
Encoding: 17 9405 17
Width: 817
Flags: HW
HStem: -83 21G<309 327 472 490> 100 68<356 455> 364 20G<315 333 490 508>
VStem: 287 66<-79 89 155 350> 447 67<-80 93> 466 67<172 381>
LayerCount: 2
Fore
SplineSet
92 150 m 4
 92 -24 234 -166 408 -166 c 4
 582 -166 725 -24 725 150 c 4
 725 324 582 466 408 466 c 4
 235 466 92 323 92 150 c 4
25 150 m 4
 25 361 197 534 408 534 c 4
 619 534 792 361 792 150 c 4
 792 -61 619 -234 408 -234 c 4
 196 -234 25 -62 25 150 c 4
284 -49 m 0xf8
 284 -33 285 59 287 151 c 0
 289 243 291 335 291 351 c 0
 291 369 306 384 324 384 c 0
 342 384 358 369 358 351 c 0
 358 320 357 241 355 155 c 1
 365 157 454 168 457 168 c 0
 461 255 463 291 466 352 c 0
 467 370 481 384 499 384 c 0
 517 384 533 368 533 350 c 2
 533 347 l 2xf4
 531 323 514 -35 514 -51 c 0
 513 -69 499 -83 481 -83 c 0
 463 -83 447 -67 447 -49 c 2
 447 -44 l 1
 450 -1 452 35 455 100 c 1
 453 100 369 89 353 87 c 1
 353 75 l 2
 351 -45 351 -45 351 -50 c 0
 351 -68 336 -83 318 -83 c 0
 300 -83 284 -67 284 -49 c 0xf8
EndSplineSet
EndChar

StartChar: uni24BE
Encoding: 18 9406 18
Width: 817
Flags: HW
HStem: -92 69<281 311> -83 65<534 604> 317 67<425 564>
VStem: 351 74<99 311>
LayerCount: 2
Fore
SplineSet
92 150 m 4
 92 -24 234 -166 408 -166 c 4
 582 -166 725 -24 725 150 c 4
 725 324 582 466 408 466 c 4
 235 466 92 323 92 150 c 4
25 150 m 4
 25 361 197 534 408 534 c 4
 619 534 792 361 792 150 c 4
 792 -61 619 -234 408 -234 c 4
 196 -234 25 -62 25 150 c 4
574 -83 m 0x70
 563 -83 529 -69 491 -53 c 0
 454 -37 413 -20 384 -12 c 1
 365 -55 317 -92 279 -92 c 0xb0
 243 -92 209 -56 209 -18 c 0
 209 25 266 64 329 64 c 2
 333 64 l 1
 344 132 348 169 351 231 c 0
 352 267 354 285 357 312 c 1
 350 311 320 308 297 305 c 0
 283 303 272 302 272 302 c 0
 254 302 238 318 238 336 c 0
 238 353 251 367 267 369 c 0
 350 380 406 384 476 384 c 2
 503 384 l 2
 505 384 507 383 510 383 c 0
 513 383 516 383 518 383 c 2
 534 383 l 2
 552 383 567 368 567 350 c 0
 567 332 552 316 534 316 c 2
 533 316 l 2
 530 316 528 317 526 317 c 0
 524 317 521 317 518 317 c 2
 476 317 l 2
 439 317 434 317 425 316 c 1
 425 311 l 1
 416 188 407 99 399 54 c 1
 438 43 471 28 504 14 c 0
 530 3 555 -8 585 -18 c 0
 599 -24 608 -35 608 -49 c 0
 608 -67 592 -83 574 -83 c 0x70
278 -21 m 1
 281 -24 l 1
 282 -23 282 -23 283 -23 c 0
 294 -19 301 -14 311 -4 c 1
 298 -6 287 -12 278 -21 c 1
EndSplineSet
EndChar

StartChar: uni24BF
Encoding: 19 9407 19
Width: 817
Flags: HW
HStem: -83 67<343 417> 364 20G<484 502>
VStem: 455 66<63 378>
LayerCount: 2
Fore
SplineSet
92 150 m 4
 92 -24 234 -166 408 -166 c 4
 582 -166 725 -24 725 150 c 4
 725 324 582 466 408 466 c 4
 235 466 92 323 92 150 c 4
25 150 m 4
 25 361 197 534 408 534 c 4
 619 534 792 361 792 150 c 4
 792 -61 619 -234 408 -234 c 4
 196 -234 25 -62 25 150 c 4
324 7 m 0
 334 7 351 1 367 -5 c 0
 383 -11 400 -16 410 -16 c 1
 440 60 449 109 454 233 c 0
 454 235 455 237 455 239 c 0
 455 241 455 243 455 245 c 2
 455 258 l 2
 456 293 456 297 460 353 c 0
 461 370 475 384 493 384 c 0
 511 384 527 368 527 350 c 2
 527 349 l 2
 526 339 526 339 522 255 c 0
 522 253 521 252 521 250 c 0
 521 248 521 247 521 245 c 2
 521 235 l 1
 516 96 506 39 470 -45 c 0
 460 -69 439 -83 411 -83 c 0
 393 -83 360 -75 315 -59 c 0
 301 -55 290 -41 290 -26 c 0
 290 -8 306 7 324 7 c 0
EndSplineSet
EndChar

StartChar: uni24C0
Encoding: 20 9408 20
Width: 817
Flags: HW
HStem: -83 21G<283.5 301.5> 364 20G<304.5 322.5>
VStem: 280.5 67<207 381> 494.5 64<326 377>
LayerCount: 2
Fore
SplineSet
92 150 m 4
 92 -24 234 -166 408 -166 c 4
 582 -166 725 -24 725 150 c 4
 725 324 582 466 408 466 c 4
 235 466 92 323 92 150 c 4
25 150 m 4
 25 361 197 534 408 534 c 4
 619 534 792 361 792 150 c 4
 792 -61 619 -234 408 -234 c 4
 196 -234 25 -62 25 150 c 4
558.5 346 m 0
 558.5 298 461.5 194 363.5 136 c 1
 376.5 123 396.5 107 419.5 89 c 0
 457.5 59 504.5 23 544.5 -22 c 0
 549.5 -28 552.5 -36 552.5 -44 c 0
 552.5 -62 537.5 -77 519.5 -77 c 0
 509.5 -77 500.5 -73 494.5 -66 c 0
 457.5 -24 357.5 55 336.5 71 c 0
 334.5 73 332.5 74 332.5 74 c 1
 325.5 -51 l 2
 324.5 -69 310.5 -83 292.5 -83 c 0
 274.5 -83 258.5 -67 258.5 -49 c 0
 259.5 -46 272.5 180 280.5 352 c 0
 281.5 370 295.5 384 313.5 384 c 0
 331.5 384 347.5 368 347.5 350 c 0
 347.5 349 347.5 353 339.5 200 c 1
 415.5 245 465.5 297 494.5 360 c 0
 499.5 372 510.5 380 524.5 380 c 0
 542.5 380 558.5 364 558.5 346 c 0
EndSplineSet
EndChar

StartChar: uni24C1
Encoding: 21 9409 21
Width: 817
Flags: HW
HStem: -83 67<364 521> 364 20G<355 373>
VStem: 331 67<200 380>
LayerCount: 2
Fore
SplineSet
92 150 m 4
 92 -24 234 -166 408 -166 c 4
 582 -166 725 -24 725 150 c 4
 725 324 582 466 408 466 c 4
 235 466 92 323 92 150 c 4
25 150 m 4
 25 361 197 534 408 534 c 4
 619 534 792 361 792 150 c 4
 792 -61 619 -234 408 -234 c 4
 196 -234 25 -62 25 150 c 4
398 350 m 0
 398 349 396 338 394 320 c 0
 386 258 369 110 361 -15 c 1
 367 -16 370 -16 400 -16 c 0
 403 -16 403 -16 479 -14 c 2
 492 -14 l 2
 510 -14 525 -29 525 -47 c 0
 525 -65 511 -80 493 -81 c 0
 421 -83 421 -83 400 -83 c 0
 321 -83 292 -71 292 -37 c 2
 292 -35 l 1
 299 89 308 182 331 355 c 0
 333 372 347 384 364 384 c 0
 382 384 398 368 398 350 c 0
EndSplineSet
EndChar

StartChar: uni24C2
Encoding: 22 9410 22
Width: 817
Flags: HW
HStem: -83 21G<227.5 243.5 563.5 581.5> 364 20G<369.5 391.5 557.5 585.5>
VStem: 202.5 64<-79 -37> 305.5 113<180 313> 538.5 67<-79 147> 547.5 67<-67 159>
LayerCount: 2
Fore
SplineSet
92 150 m 4
 92 -24 234 -166 408 -166 c 4
 582 -166 725 -24 725 150 c 4
 725 324 582 466 408 466 c 4
 235 466 92 323 92 150 c 4
25 150 m 4
 25 361 197 534 408 534 c 4
 619 534 792 361 792 150 c 4
 792 -61 619 -234 408 -234 c 4
 196 -234 25 -62 25 150 c 4
205.5 -37 m 2xf4
 205.5 -36 l 1
 206.5 -36 206.5 -36 206.5 -35 c 0
 252.5 56 282.5 164 305.5 246 c 0
 322.5 306 334.5 353 347.5 370 c 0
 354.5 379 364.5 384 375.5 384 c 0
 408.5 384 415.5 366 418.5 270 c 0
 421.5 170 427.5 126 439.5 103 c 1
 471.5 123 491.5 210 507.5 279 c 0
 516.5 321 524.5 356 533.5 367 c 0
 541.5 378 551.5 384 564.5 384 c 0
 605.5 384 614.5 341 614.5 150 c 0xf4
 614.5 88 611.5 9 605.5 -53 c 0
 603.5 -70 589.5 -83 572.5 -83 c 0
 554.5 -83 538.5 -67 538.5 -49 c 2
 538.5 -45 l 1xf8
 544.5 13 547.5 80 547.5 150 c 2
 547.5 163 l 1
 517.5 75 482.5 34 436.5 34 c 0
 390.5 34 365.5 77 356.5 172 c 1
 326.5 72 297.5 -4 266.5 -65 c 0
 261.5 -76 249.5 -83 236.5 -83 c 0
 218.5 -83 202.5 -67 202.5 -49 c 0
 202.5 -45 202.5 -44 205.5 -37 c 2xf4
EndSplineSet
EndChar

StartChar: uni24C3
Encoding: 23 9411 23
Width: 817
Flags: HW
HStem: -83 21G<268.5 285.5 459.5 498.5> 364 20G<327.5 359.5 531.5 549.5>
VStem: 507.5 66<137 381>
LayerCount: 2
Fore
SplineSet
92 150 m 4
 92 -24 234 -166 408 -166 c 4
 582 -166 725 -24 725 150 c 4
 725 324 582 466 408 466 c 4
 235 466 92 323 92 150 c 4
25 150 m 4
 25 361 197 534 408 534 c 4
 619 534 792 361 792 150 c 4
 792 -61 619 -234 408 -234 c 4
 196 -234 25 -62 25 150 c 4
244.5 -47 m 1
 244.5 -43 l 1
 273.5 108 283.5 320 294.5 354 c 0
 300.5 372 318.5 384 337.5 384 c 0
 380.5 384 400.5 343 448.5 144 c 0
 449.5 143 449.5 142 449.5 139 c 0
 467.5 63 472.5 43 479.5 21 c 1
 494.5 87 507.5 238 507.5 351 c 0
 507.5 369 522.5 384 540.5 384 c 0
 558.5 384 573.5 369 573.5 351 c 0
 573.5 258 565.5 141 554.5 63 c 0
 538.5 -42 517.5 -83 479.5 -83 c 0
 439.5 -83 425.5 -49 370.5 179 c 0
 357.5 232 353.5 246 348.5 263 c 1
 332.5 80 325.5 21 310.5 -56 c 0
 307.5 -71 293.5 -83 277.5 -83 c 0
 259.5 -83 243.5 -67 243.5 -49 c 0
 243.5 -48 243.5 -48 244.5 -47 c 1
EndSplineSet
EndChar

StartChar: uni24C4
Encoding: 24 9412 24
Width: 817
Flags: HW
HStem: -83 68<299 448> 317 67<364 526>
VStem: 197 67<16 210> 553 67<136 293>
LayerCount: 2
Fore
SplineSet
92 150 m 4
 92 -24 234 -166 408 -166 c 4
 582 -166 725 -24 725 150 c 4
 725 324 582 466 408 466 c 4
 235 466 92 323 92 150 c 4
25 150 m 4
 25 361 197 534 408 534 c 4
 619 534 792 361 792 150 c 4
 792 -61 619 -234 408 -234 c 4
 196 -234 25 -62 25 150 c 4
455 317 m 2
 330 316 264 239 264 96 c 0
 264 83 265 73 268 40 c 0
 272 11 323 -15 376 -15 c 0
 420 -15 457 2 479 32 c 0
 525 99 553 175 553 232 c 0
 553 291 524 317 457 317 c 2
 455 317 l 2
197 96 m 0
 197 277 292 383 454 384 c 2
 457 384 l 2
 560 384 620 328 620 232 c 0
 620 161 585 65 534 -7 c 0
 500 -55 442 -83 375 -83 c 0
 284 -83 209 -33 201 33 c 0
 198 72 197 82 197 96 c 0
EndSplineSet
EndChar

StartChar: uni24C5
Encoding: 25 9413 25
Width: 817
Flags: HW
HStem: -83 21G<296.5 314.5> 137 67<366.5 447.5> 317 67<384.5 475.5>
VStem: 271.5 86<-57 136> 478.5 67<238 310>
LayerCount: 2
Fore
SplineSet
92 150 m 4
 92 -24 234 -166 408 -166 c 4
 582 -166 725 -24 725 150 c 4
 725 324 582 466 408 466 c 4
 235 466 92 323 92 150 c 4
25 150 m 4
 25 361 197 534 408 534 c 4
 619 534 792 361 792 150 c 4
 792 -61 619 -234 408 -234 c 4
 196 -234 25 -62 25 150 c 4
430.5 384 m 0
 494.5 384 545.5 343 545.5 291 c 0
 545.5 260 523.5 205 501.5 180 c 0
 473.5 151 435.5 137 387.5 137 c 0
 366.5 137 363.5 137 357.5 138 c 1
 351.5 92 344.5 22 338.5 -52 c 0
 337.5 -69 323.5 -83 305.5 -83 c 0
 287.5 -83 271.5 -67 271.5 -49 c 0
 271.5 4 312.5 306 323.5 337 c 0
 332.5 361 385.5 384 430.5 384 c 0
366.5 204 m 1
 387.5 204 l 2
 440.5 204 464.5 226 478.5 288 c 1
 478.5 291 l 2
 478.5 304 454.5 317 430.5 317 c 2
 428.5 317 l 1
 427.5 316 427.5 316 426.5 316 c 0
 409.5 313 395.5 309 383.5 304 c 1
 379.5 287 373.5 247 366.5 204 c 1
EndSplineSet
EndChar

StartChar: uni24C6
Encoding: 26 9414 26
Width: 817
Flags: HW
HStem: -83 21G<532 546> -47 67<315 380> 317 67<422 462>
VStem: 247 68<23 39 39 146> 463 67<167 316>
LayerCount: 2
Fore
SplineSet
92 150 m 4
 92 -24 234 -166 408 -166 c 4
 582 -166 725 -24 725 150 c 4
 725 324 582 466 408 466 c 4
 235 466 92 323 92 150 c 4
25 150 m 4
 25 361 197 534 408 534 c 4
 619 534 792 361 792 150 c 4
 792 -61 619 -234 408 -234 c 4
 196 -234 25 -62 25 150 c 4
247 37 m 0
 247 202 359 384 460 384 c 0
 506 384 530 350 530 283 c 0
 530 219 510 137 478 67 c 1
 570 -37 570 -37 570 -50 c 0
 570 -68 555 -83 537 -83 c 0
 527 -83 518 -79 512 -72 c 0
 506 -65 470 -25 452 -5 c 0
 446 2 442 7 442 7 c 1
 413 -28 379 -47 344 -47 c 0
 295 -47 247 -5 247 37 c 0
391 149 m 0
 405 149 412 144 429 123 c 1
 449 177 463 241 463 283 c 0
 463 294 461 308 459 317 c 1
 397 315 325 177 314 39 c 1
 315 39 315 39 315 38 c 0
 323 26 333 20 344 20 c 0
 360 20 379 34 397 59 c 1
 362 98 358 104 358 115 c 0
 358 133 373 149 391 149 c 0
EndSplineSet
EndChar

StartChar: uni24C7
Encoding: 27 9415 27
Width: 817
Flags: HW
HStem: -83 21G<288.5 306.5 474.5 489.5> 317 67<357.5 457.5>
VStem: 268.5 67<-77 63 113 291> 486.5 67<201 291>
LayerCount: 2
Fore
SplineSet
92 150 m 4
 92 -24 234 -166 408 -166 c 4
 582 -166 725 -24 725 150 c 4
 725 324 582 466 408 466 c 4
 235 466 92 323 92 150 c 4
25 150 m 4
 25 361 197 534 408 534 c 4
 619 534 792 361 792 150 c 4
 792 -61 619 -234 408 -234 c 4
 196 -234 25 -62 25 150 c 4
336.5 113 m 1
 343.5 120 357.5 128 375.5 137 c 0
 421.5 161 486.5 195 486.5 253 c 0
 486.5 291 441.5 317 374.5 317 c 0
 362.5 317 362.5 317 359.5 316 c 0
 342.5 245 337.5 200 336.5 113 c 1
553.5 253 m 0
 553.5 186 506.5 129 410.5 79 c 1
 425.5 62 429.5 58 445.5 42 c 0
 501.5 -16 513.5 -32 513.5 -50 c 0
 513.5 -68 498.5 -83 480.5 -83 c 0
 469.5 -83 458.5 -78 452.5 -68 c 0
 426.5 -30 396.5 0 371.5 25 c 0
 357.5 39 345.5 51 335.5 63 c 1
 335.5 53 331.5 -42 330.5 -51 c 0
 329.5 -69 315.5 -83 297.5 -83 c 0
 279.5 -83 263.5 -67 263.5 -49 c 2
 263.5 -48 l 2
 266.5 -26 267.5 11 268.5 70 c 2
 268.5 77 l 2
 269.5 195 275.5 247 296.5 340 c 0
 302.5 368 331.5 384 374.5 384 c 0
 476.5 384 553.5 328 553.5 253 c 0
EndSplineSet
EndChar

StartChar: uni24C8
Encoding: 28 9416 28
Width: 817
Flags: HW
HStem: -83 66<333 421> 311 73<469 564>
VStem: 324 67<180 259> 446 67<9 80>
LayerCount: 2
Fore
SplineSet
92 150 m 4
 92 -24 234 -166 408 -166 c 4
 582 -166 725 -24 725 150 c 4
 725 324 582 466 408 466 c 4
 235 466 92 323 92 150 c 4
25 150 m 4
 25 361 197 534 408 534 c 4
 619 534 792 361 792 150 c 4
 792 -61 619 -234 408 -234 c 4
 196 -234 25 -62 25 150 c 4
391 225 m 2
 391 190 422 165 452 141 c 0
 482 117 513 93 513 58 c 0
 513 -13 450 -83 385 -83 c 0
 348 -83 309 -69 264 -41 c 0
 254 -34 248 -24 248 -13 c 0
 248 5 264 21 282 21 c 0
 299 21 316 12 333 2 c 0
 350 -8 368 -17 385 -17 c 0
 414 -17 432 5 446 58 c 0
 446 63 433 76 407 97 c 0
 346 146 324 180 324 225 c 0
 324 295 381 340 525 383 c 0
 527 384 527 384 535 384 c 0
 553 384 569 368 569 350 c 0
 569 328 564 324 521 311 c 0
 474 298 452 290 433 278 c 0
 408 262 393 246 391 232 c 2
 391 225 l 2
EndSplineSet
EndChar

StartChar: uni24C9
Encoding: 29 9417 29
Width: 817
Flags: HW
HStem: -83 21G<354 372> 317 67<431 576>
VStem: 327 70<-80 79> 360 71<100 314>
LayerCount: 2
Fore
SplineSet
92 150 m 4
 92 -24 234 -166 408 -166 c 4
 582 -166 725 -24 725 150 c 4
 725 324 582 466 408 466 c 4
 235 466 92 323 92 150 c 4
25 150 m 4
 25 361 197 534 408 534 c 4
 619 534 792 361 792 150 c 4
 792 -61 619 -234 408 -234 c 4
 196 -234 25 -62 25 150 c 4
327 -56 m 0xe0
 327 -54 328 -52 329 -50 c 0
 330 -48 331 -46 331 -44 c 0
 346 53 355 155 360 290 c 2
 360 295 l 2
 360 301 361 303 362 305 c 0
 363 307 364 308 364 314 c 1
 274 304 274 304 268 304 c 0
 250 304 235 319 235 337 c 0
 235 354 247 368 264 370 c 0
 346 380 393 384 445 384 c 0
 489 384 521 383 551 380 c 0
 568 379 582 364 582 346 c 0
 582 328 566 313 548 313 c 2
 546 313 l 2
 517 316 486 317 445 317 c 2
 431 317 l 1xd0
 431 231 415 52 397 -55 c 0
 394 -72 380 -83 364 -83 c 0
 343 -83 327 -72 327 -56 c 0xe0
EndSplineSet
EndChar

StartChar: uni24CA
Encoding: 30 9418 30
Width: 817
Flags: HW
HStem: -83 65<357.5 399.5> 364 20G<317.5 335.5 498.5 516.5>
VStem: 276.5 67<-9 329> 474.5 66<156 381>
LayerCount: 2
Fore
SplineSet
92 150 m 4
 92 -24 234 -166 408 -166 c 4
 582 -166 725 -24 725 150 c 4
 725 324 582 466 408 466 c 4
 235 466 92 323 92 150 c 4
25 150 m 4
 25 361 197 534 408 534 c 4
 619 534 792 361 792 150 c 4
 792 -61 619 -234 408 -234 c 4
 196 -234 25 -62 25 150 c 4
360.5 350 m 0
 360.5 330 355.5 280 351.5 231 c 0
 347.5 182 343.5 133 343.5 113 c 0
 343.5 48 349.5 9 362.5 -10 c 0
 365.5 -14 369.5 -18 371.5 -18 c 0
 423.5 -18 471.5 154 474.5 351 c 0
 474.5 369 489.5 384 507.5 384 c 0
 525.5 384 540.5 369 540.5 351 c 0
 540.5 96 471.5 -83 372.5 -83 c 0
 307.5 -83 276.5 -20 276.5 113 c 0
 276.5 165 283.5 264 293.5 354 c 0
 295.5 371 309.5 384 326.5 384 c 0
 344.5 384 360.5 368 360.5 350 c 0
EndSplineSet
EndChar

StartChar: uni24CB
Encoding: 31 9419 31
Width: 817
Flags: HW
HStem: -83 21G<396 418> 364 20G<264 280 537 553>
VStem: 239 65<310 381> 512 66<340 380>
LayerCount: 2
Fore
SplineSet
92 150 m 4
 92 -24 234 -166 408 -166 c 4
 582 -166 725 -24 725 150 c 4
 725 324 582 466 408 466 c 4
 235 466 92 323 92 150 c 4
25 150 m 4
 25 361 197 534 408 534 c 4
 619 534 792 361 792 150 c 4
 792 -61 619 -234 408 -234 c 4
 196 -234 25 -62 25 150 c 4
577 341 m 0
 577 340 577 340 576 340 c 1
 576 339 l 1
 565 310 538 223 525 180 c 0
 521 166 518 156 518 156 c 0
 448 -58 436 -83 401 -83 c 0
 392 -83 382 -79 375 -72 c 0
 355 -50 320 72 290 180 c 0
 271 249 253 312 242 338 c 0
 240 342 239 346 239 350 c 0
 239 368 255 384 273 384 c 0
 286 384 299 376 304 363 c 0
 322 320 327 297 337 259 c 0
 348 217 364 156 405 31 c 1
 417 62 438 129 459 198 c 0
 479 261 499 325 512 362 c 0
 517 376 530 384 544 384 c 0
 562 384 578 368 578 350 c 0
 578 345 578 345 577 341 c 0
EndSplineSet
EndChar

StartChar: uni24CC
Encoding: 32 9420 32
Width: 817
Flags: HW
HStem: -83 21G<249 288 503 542> 364 20G<153 170 647 664>
VStem: 623 66<286 380>
LayerCount: 2
Fore
SplineSet
92 150 m 4
 92 -24 234 -166 408 -166 c 4
 582 -166 725 -24 725 150 c 4
 725 324 582 466 408 466 c 4
 235 466 92 323 92 150 c 4
25 150 m 4
 25 361 197 534 408 534 c 4
 619 534 792 361 792 150 c 4
 792 -61 619 -234 408 -234 c 4
 196 -234 25 -62 25 150 c 4
129 343 m 2
 129 349 l 1
 128 349 128 349 128 350 c 0
 128 368 144 384 162 384 c 0
 178 384 192 372 195 357 c 0
 237 146 260 49 279 0 c 1
 299 38 314 100 329 158 c 0
 344 218 358 276 376 299 c 0
 386 313 399 321 415 321 c 0
 461 321 479 279 503 113 c 0
 512 46 516 23 522 3 c 1
 542 43 557 97 603 282 c 0
 615 332 620 351 623 360 c 0
 627 374 640 384 655 384 c 0
 673 384 689 368 689 350 c 0
 689 349 689 349 659 232 c 2
 655 216 l 2
 589 -35 567 -83 517 -83 c 0
 490 -83 472 -63 459 -20 c 1
 459 -19 l 1
 449 20 442 67 436 110 c 0
 430 153 425 193 416 223 c 1
 410 205 403 178 396 149 c 0
 383 97 368 36 348 -11 c 0
 328 -59 303 -83 273 -83 c 0
 226 -83 203 -22 149 248 c 0
 143 279 132 331 129 343 c 2
EndSplineSet
EndChar

StartChar: uni24CD
Encoding: 33 9421 33
Width: 817
Flags: HW
HStem: -83 21G<244 257 503 517> 364 20G<303 319 559 573>
VStem: 278 65<329 381>
LayerCount: 2
Fore
SplineSet
92 150 m 4
 92 -24 234 -166 408 -166 c 4
 582 -166 725 -24 725 150 c 4
 725 324 582 466 408 466 c 4
 235 466 92 323 92 150 c 4
25 150 m 4
 25 361 197 534 408 534 c 4
 619 534 792 361 792 150 c 4
 792 -61 619 -234 408 -234 c 4
 196 -234 25 -62 25 150 c 4
220 -50 m 0
 220 -38 223 -34 241 -13 c 0
 260 9 296 50 362 142 c 1
 326 228 306 276 295 303 c 0
 292 311 284 329 284 329 c 0
 284 329 l 0
 284 329 l 1
 283 332 282 335 281 337 c 2
 279 341 278 345 278 350 c 0
 278 368 294 384 312 384 c 0
 326 384 338 376 343 364 c 0
 347 356 347 356 398 231 c 2
 408 206 l 1
 455 269 495 320 539 372 c 0
 546 380 555 384 564 384 c 0
 582 384 597 369 597 351 c 0
 597 341 595 334 590 329 c 0
 535 264 482 193 456 157 c 0
 446 144 440 135 439 134 c 1
 482 43 509 5 525 -17 c 0
 536 -32 541 -39 541 -50 c 0
 541 -68 526 -83 508 -83 c 0
 498 -83 488 -78 481 -69 c 0
 447 -23 422 17 394 73 c 1
 365 34 336 -2 278 -71 c 0
 271 -79 262 -83 253 -83 c 0
 235 -83 220 -68 220 -50 c 0
EndSplineSet
EndChar

StartChar: uni24CE
Encoding: 34 9422 34
Width: 817
Flags: HW
HStem: -83 21G<390 408> 364 20G<302 318 500 515>
VStem: 277 65<308 381> 366 66<-80 165>
LayerCount: 2
Fore
SplineSet
92 150 m 4
 92 -24 234 -166 408 -166 c 4
 582 -166 725 -24 725 150 c 4
 725 324 582 466 408 466 c 4
 235 466 92 323 92 150 c 4
25 150 m 4
 25 361 197 534 408 534 c 4
 619 534 792 361 792 150 c 4
 792 -61 619 -234 408 -234 c 4
 196 -234 25 -62 25 150 c 4
438 98 m 0
 438 70 437 52 435 33 c 0
 433 14 432 -4 432 -32 c 2
 432 -49 l 2
 432 -67 417 -83 399 -83 c 0
 381 -83 366 -68 366 -50 c 2
 366 -37 l 2
 366 -36 366 -36 366 -35 c 0
 366 -34 365 -33 365 -32 c 0
 365 -17 366 9 368 35 c 0
 370 61 371 88 371 103 c 0
 371 133 371 137 369 149 c 1
 343 166 323 206 298 290 c 1
 297 290 297 290 297 291 c 0
 296 294 294 299 292 306 c 0
 286 323 277 347 277 350 c 0
 277 368 293 384 311 384 c 0
 324 384 337 376 342 363 c 0
 349 345 353 332 366 296 c 0
 380 254 390 229 401 211 c 1
 410 225 419 247 429 270 c 0
 443 303 458 340 479 370 c 0
 485 379 495 384 506 384 c 0
 524 384 540 369 540 351 c 0
 540 339 539 338 535 333 c 0
 529 326 518 310 491 245 c 0
 466 185 454 164 436 150 c 1
 438 138 438 133 438 98 c 0
EndSplineSet
EndChar

StartChar: uni24CF
Encoding: 35 9423 35
Width: 817
Flags: HW
HStem: -83 67<316.5 509.5> 310 67<269.5 424.5> 317 67<273.5 501.5>
LayerCount: 2
Fore
SplineSet
92 150 m 4
 92 -24 234 -166 408 -166 c 4
 582 -166 725 -24 725 150 c 4
 725 324 582 466 408 466 c 4
 235 466 92 323 92 150 c 4
25 150 m 4
 25 361 197 534 408 534 c 4
 619 534 792 361 792 150 c 4
 792 -61 619 -234 408 -234 c 4
 196 -234 25 -62 25 150 c 4
571.5 321 m 1xa0
 571.5 316 l 1
 563.5 250 528.5 199 420.5 97 c 0
 372.5 54 323.5 2 315.5 -14 c 1
 335.5 -16 336.5 -16 345.5 -16 c 0
 401.5 -16 480.5 -6 522.5 7 c 0
 524.5 8 524.5 8 531.5 8 c 0
 549.5 8 564.5 -8 564.5 -26 c 0
 564.5 -41 554.5 -54 540.5 -58 c 0
 489.5 -73 409.5 -83 345.5 -83 c 0
 271.5 -83 244.5 -68 244.5 -26 c 0
 244.5 25 302.5 79 364.5 136 c 0
 424.5 191 486.5 249 502.5 310 c 1xc0
 482.5 314 454.5 317 425.5 317 c 0xa0
 397.5 317 362.5 315 302.5 310 c 1
 299.5 310 l 2
 281.5 310 266.5 326 266.5 344 c 0
 266.5 361 279.5 375 296.5 377 c 0xc0
 376.5 383 397.5 384 425.5 384 c 0
 527.5 384 572.5 365 572.5 322 c 0
 572.5 321 572.5 321 571.5 321 c 1xa0
EndSplineSet
EndChar

StartChar: uni24D0
Encoding: 36 9424 36
Width: 817
Flags: HW
HStem: 0 67<341 380.624> 233 67<399.186 457.02>
VStem: 274 67<67.3858 165.377> 454 67<135.821 232.199> 463 80<12.4458 67.1732>
LayerCount: 2
Fore
SplineSet
92 150 m 4
 92 -24 234 -166 408 -166 c 4
 582 -166 725 -24 725 150 c 4
 725 324 582 466 408 466 c 4
 235 466 92 323 92 150 c 4
25 150 m 4
 25 361 197 534 408 534 c 4
 619 534 792 361 792 150 c 4
 792 -61 619 -234 408 -234 c 4
 196 -234 25 -62 25 150 c 4
521 151 m 0xf0
 521 115 526 103 532 92 c 0
 538 81 543 70 543 34 c 0
 543 16 527 0 509 0 c 0
 485 0 476 13 463 68 c 1xe8
 419 25 374 0 341 0 c 0
 300 0 274 32 274 81 c 0
 274 132 297 203 325 239 c 0
 356 278 401 300 450 300 c 0
 501 300 529 285 529 258 c 0
 529 241 527 222 525 204 c 0
 523 186 521 168 521 151 c 0xf0
342 67 m 0
 363 67 424 118 454 160 c 1xf0
 454 194 455 216 458 233 c 1
 450 233 l 2
 391 233 341 163 341 81 c 0
 341 69 341 69 342 67 c 0
EndSplineSet
EndChar

StartChar: uni24D1
Encoding: 37 9425 37
Width: 817
Flags: HW
HStem: -83 21G<323 373> 150 67<403 460> 364 20G<324 342>
VStem: 300 67<191 381> 461 67<59 149>
LayerCount: 2
Fore
SplineSet
92 150 m 4
 92 -24 234 -166 408 -166 c 4
 582 -166 725 -24 725 150 c 4
 725 324 582 466 408 466 c 4
 235 466 92 323 92 150 c 4
25 150 m 4
 25 361 197 534 408 534 c 4
 619 534 792 361 792 150 c 4
 792 -61 619 -234 408 -234 c 4
 196 -234 25 -62 25 150 c 4
461 122 m 0
 461 141 456 150 445 150 c 0
 397 150 363 86 357 -16 c 1
 371 -15 376 -11 411 25 c 2
 431 45 l 2
 449 64 461 95 461 122 c 0
323 -81 m 2
 303 -81 289 -66 289 -45 c 2
 289 -9 l 2
 289 69 294 243 300 352 c 0
 301 370 315 384 333 384 c 0
 351 384 367 369 367 351 c 2
 367 341 l 1
 360 194 360 194 360 188 c 1
 379 205 414 217 445 217 c 0
 497 217 528 181 528 122 c 0
 528 67 509 27 460 -22 c 0
 416 -69 392 -83 354 -83 c 2
 323 -81 l 2
EndSplineSet
EndChar

StartChar: uni24D2
Encoding: 38 9426 38
Width: 817
Flags: HW
HStem: 0 67<366.416 515.617> 235 65<447.35 509.404>
VStem: 298 66<68.6865 80 81 152.255>
LayerCount: 2
Fore
SplineSet
92 150 m 4
 92 -24 234 -166 408 -166 c 4
 582 -166 725 -24 725 150 c 4
 725 324 582 466 408 466 c 4
 235 466 92 323 92 150 c 4
25 150 m 4
 25 361 197 534 408 534 c 4
 619 534 792 361 792 150 c 4
 792 -61 619 -234 408 -234 c 4
 196 -234 25 -62 25 150 c 4
298 68 m 2
 298 78 l 2
 298 80 l 0
 297 81 l 0
 297 180 396 300 479 300 c 0
 497 300 513 284 513 266 c 0
 513 251 503 239 489 235 c 0
 411 210 364 153 364 81 c 2
 364 79 l 2
 364 70 380 67 424 67 c 2
 452 67 l 2
 466 67 468 67 469 68 c 0
 470 69 472 70 486 70 c 0
 504 70 520 55 520 37 c 0
 520 11 500 0 452 0 c 0
 353 0 300 23 298 68 c 2
EndSplineSet
EndChar

StartChar: uni24D3
Encoding: 39 9427 39
Width: 817
Flags: HW
HStem: -83 67<345.5 421.5> 150 67<374.5 457.5> 364 20G<496.5 514.5>
VStem: 277.5 67<-15 115> 459.5 73<10 131 203 347> 472.5 67<206 381>
LayerCount: 2
Fore
SplineSet
92 150 m 4
 92 -24 234 -166 408 -166 c 4
 582 -166 725 -24 725 150 c 4
 725 324 582 466 408 466 c 4
 235 466 92 323 92 150 c 4
25 150 m 4
 25 361 197 534 408 534 c 4
 619 534 792 361 792 150 c 4
 792 -61 619 -234 408 -234 c 4
 196 -234 25 -62 25 150 c 4
530.5 124 m 0xf4
 530.5 116 531.5 76 532.5 37 c 0
 533.5 -2 535.5 -41 535.5 -49 c 0
 535.5 -67 519.5 -83 501.5 -83 c 0
 483.5 -83 468.5 -68 467.5 -50 c 1
 434.5 -69 388.5 -83 361.5 -83 c 0
 309.5 -83 277.5 -45 277.5 18 c 0
 277.5 133 329.5 217 401.5 217 c 0
 417.5 217 434.5 213 459.5 203 c 1xf8
 461.5 244 466.5 303 472.5 354 c 0
 474.5 371 488.5 384 505.5 384 c 0
 524.5 384 539.5 369 539.5 350 c 2
 539.5 344 l 1
 533.5 263 530.5 186 530.5 124 c 0xf4
361.5 -16 m 0
 367.5 -16 379.5 -11 390.5 -7 c 0
 401.5 -3 412.5 1 418.5 1 c 1
 451.5 13 459.5 23 459.5 50 c 2
 459.5 52 l 2
 457.5 86 457.5 99 457.5 121 c 0
 457.5 122 457.5 122 458.5 123 c 1
 458.5 124 l 2
 459.5 128 459.5 130 457.5 131 c 0
 431.5 144 413.5 150 401.5 150 c 0
 371.5 150 344.5 87 344.5 18 c 0
 344.5 -8 348.5 -16 361.5 -16 c 0
EndSplineSet
EndChar

StartChar: uni24D4
Encoding: 40 9428 40
Width: 817
Flags: HW
HStem: 0 67<366.07 455.392> 280 20G<420.5 442.5>
VStem: 427.5 69<167.775 230.628>
LayerCount: 2
Fore
SplineSet
92 150 m 4
 92 -24 234 -166 408 -166 c 4
 582 -166 725 -24 725 150 c 4
 725 324 582 466 408 466 c 4
 235 466 92 323 92 150 c 4
25 150 m 4
 25 361 197 534 408 534 c 4
 619 534 792 361 792 150 c 4
 792 -61 619 -234 408 -234 c 4
 196 -234 25 -62 25 150 c 4
393.5 67 m 0
 411.5 67 427.5 74 442.5 81 c 0
 457.5 88 473.5 95 491.5 95 c 0
 509.5 95 525.5 79 525.5 61 c 0
 525.5 48 518.5 37 507.5 31 c 0
 467.5 10 432.5 0 393.5 0 c 0
 332.5 0 291.5 43 291.5 107 c 0
 291.5 122 293.5 136 296.5 152 c 0
 317.5 241 347.5 281 405.5 298 c 0
 419.5 300 419.5 300 421.5 300 c 0
 463.5 300 496.5 258 496.5 204 c 0
 496.5 144 433.5 83 365.5 76 c 1
 369.5 69 375.5 67 393.5 67 c 0
427.5 194 m 2
 429.5 202 429.5 202 429.5 204 c 0
 429.5 212 425.5 222 418.5 232 c 1
 391.5 222 377.5 200 363.5 144 c 1
 391.5 149 411.5 164 427.5 192 c 1
 427.5 194 l 2
EndSplineSet
EndChar

StartChar: uni24D5
Encoding: 41 9429 41
Width: 817
Flags: HW
HStem: -83 21G<355.5 373.5> 138 67<259.5 337.5 412.5 548.5> 144 73<414.5 554.5> 317 67<440.5 493.5>
VStem: 333.5 68<-78 -51 47 140> 343.5 69<211 283>
LayerCount: 2
Fore
SplineSet
92 150 m 4
 92 -24 234 -166 408 -166 c 4
 582 -166 725 -24 725 150 c 4
 725 324 582 466 408 466 c 4
 235 466 92 323 92 150 c 4
25 150 m 4
 25 361 197 534 408 534 c 4
 619 534 792 361 792 150 c 4
 792 -61 619 -234 408 -234 c 4
 196 -234 25 -62 25 150 c 4
404.5 144 m 1xb4
 404.5 136 403.5 92 401.5 47 c 0
 399.5 2 397.5 -43 397.5 -51 c 0
 396.5 -69 382.5 -83 364.5 -83 c 0
 346.5 -83 330.5 -67 330.5 -49 c 0
 331.5 -44 332.5 -23 333.5 15 c 2
 333.5 30 l 2
 333.5 33 333.5 35 333.5 37 c 0
 333.5 39 334.5 42 334.5 45 c 0
 336.5 122 336.5 122 337.5 141 c 1
 333.5 140 328.5 140 320.5 140 c 0
 313.5 140 304.5 139 290.5 138 c 0
 272.5 138 256.5 153 256.5 171 c 0
 256.5 189 271.5 204 288.5 205 c 0xd8
 305.5 206 316.5 207 325.5 207 c 0
 331.5 207 337.5 208 343.5 208 c 1
 355.5 299 383.5 354 427.5 373 c 0
 445.5 381 458.5 384 472.5 384 c 0
 505.5 384 540.5 352 540.5 323 c 0
 540.5 305 525.5 289 507.5 289 c 0
 500.5 289 494.5 296 489.5 303 c 0
 484.5 310 479.5 317 472.5 317 c 0
 443.5 317 423.5 282 412.5 211 c 1
 459.5 213 497.5 215 524.5 217 c 2
 526.5 217 l 2
 544.5 217 560.5 201 560.5 183 c 0
 560.5 165 546.5 151 528.5 150 c 0
 491.5 147 426.5 144 404.5 144 c 1xb4
EndSplineSet
EndChar

StartChar: uni24D6
Encoding: 42 9430 42
Width: 817
Flags: HW
HStem: -116 67<346.5 399.5> 117 66<394.5 448.5> 397 20G<464.5 520.5>
LayerCount: 2
Fore
SplineSet
92 150 m 4
 92 -24 234 -166 408 -166 c 4
 582 -166 725 -24 725 150 c 4
 725 324 582 466 408 466 c 4
 235 466 92 323 92 150 c 4
25 150 m 4
 25 361 197 534 408 534 c 4
 619 534 792 361 792 150 c 4
 792 -61 619 -234 408 -234 c 4
 196 -234 25 -62 25 150 c 4
393.5 197 m 1
 410.5 189 430.5 183 443.5 183 c 0
 446.5 183 447.5 183 448.5 184 c 2
 449.5 184 l 1
 467.5 200 475.5 232 489.5 344 c 1
 440.5 322 397.5 257 393.5 197 c 1
291.5 4 m 0
 303.5 4 320.5 -10 337.5 -23 c 0
 354.5 -36 371.5 -49 383.5 -49 c 2
 384.5 -49 l 2
 396.5 -49 427.5 32 448.5 117 c 1
 443.5 117 l 2
 382.5 117 325.5 150 325.5 186 c 0
 325.5 297 420.5 417 508.5 417 c 0
 532.5 417 559.5 395 559.5 375 c 0
 559.5 262 489.5 -20 446.5 -80 c 0
 431.5 -103 407.5 -116 383.5 -116 c 0
 353.5 -116 327.5 -102 270.5 -56 c 0
 262.5 -50 257.5 -40 257.5 -29 c 0
 257.5 -11 273.5 4 291.5 4 c 0
EndSplineSet
EndChar

StartChar: uni24D7
Encoding: 43 9431 43
Width: 817
Flags: HW
HStem: -83 21G<291 308 500 518> 148 69<408 473> 364 20G<340 358>
VStem: 266 65<-80 -6> 312 67<196 380> 476 66<-80 75> 484 67<-61 147>
LayerCount: 2
Fore
SplineSet
92 150 m 4
 92 -24 234 -166 408 -166 c 4
 582 -166 725 -24 725 150 c 4
 725 324 582 466 408 466 c 4
 235 466 92 323 92 150 c 4
25 150 m 4
 25 361 197 534 408 534 c 4
 619 534 792 361 792 150 c 4
 792 -61 619 -234 408 -234 c 4
 196 -234 25 -62 25 150 c 4
476 -49 m 0xe4
 476 -35 478 -11 480 13 c 0
 482 37 484 62 484 76 c 0
 484 108 478 130 464 148 c 1
 462 148 l 2
 458 150 457 150 454 150 c 0
 438 149 419 143 408 135 c 1
 395 116 379 83 364 41 c 0
 357 12 347 -22 332 -62 c 0
 327 -74 314 -83 300 -83 c 0
 281 -83 266 -68 266 -50 c 0xf2
 266 -43 275 -18 284 8 c 0
 291 28 297 48 300 62 c 0
 309 110 312 147 312 227 c 0
 312 276 314 307 316 353 c 0
 317 371 330 384 348 384 c 0
 366 384 382 368 382 350 c 2
 382 349 l 2
 380 324 380 282 380 226 c 2
 380 196 l 1
 405 210 430 217 454 217 c 0
 515 217 550 164 550 76 c 0xea
 550 66 545 -19 542 -47 c 2
 542 -51 l 2
 541 -69 526 -83 508 -83 c 0
 490 -83 476 -67 476 -49 c 0xe4
EndSplineSet
EndChar

StartChar: uni24D8
Encoding: 44 9432 44
Width: 817
Flags: HW
HStem: -83 21G<390 408> 197 20G<403 421> 317 67<389 449>
VStem: 365 67<-80 163> 379 67<-29 214> 386 66<320 381>
LayerCount: 2
Fore
SplineSet
92 150 m 4
 92 -24 234 -166 408 -166 c 4
 582 -166 725 -24 725 150 c 4
 725 324 582 466 408 466 c 4
 235 466 92 323 92 150 c 4
25 150 m 4
 25 361 197 534 408 534 c 4
 619 534 792 361 792 150 c 4
 792 -61 619 -234 408 -234 c 4
 196 -234 25 -62 25 150 c 4
412 217 m 0xe8
 430 217 446 201 446 183 c 0xe8
 440 94 436 30 432 -51 c 0
 431 -69 417 -83 399 -83 c 0
 381 -83 365 -67 365 -49 c 0xf0
 371 40 375 104 379 185 c 0
 380 203 394 217 412 217 c 0xe8
386 351 m 0xe4
 386 369 401 384 419 384 c 0
 437 384 452 369 452 351 c 0
 452 333 437 317 419 317 c 0
 401 317 386 333 386 351 c 0xe4
EndSplineSet
EndChar

StartChar: uni24D9
Encoding: 45 9433 45
Width: 817
Flags: HW
HStem: -128 67<350 417> 225 37<478 512> 362 67<455 517>
VStem: 436 63<-44 225> 452 68<365 426>
LayerCount: 2
Fore
SplineSet
92 150 m 0
 92 -24 234 -166 408 -166 c 0
 582 -166 725 -24 725 150 c 0
 725 324 582 466 408 466 c 0
 235 466 92 323 92 150 c 0
25 150 m 0
 25 361 197 534 408 534 c 0
 619 534 792 361 792 150 c 0
 792 -61 619 -234 408 -234 c 0
 196 -234 25 -62 25 150 c 0
512 228 m 2xf0
 512 225 l 1
 511 225 511 225 511 224 c 0
 504 170 501 133 499 76 c 0
 497 8 492 -23 469 -94 c 0
 462 -116 441 -128 410 -128 c 0
 385 -128 354 -119 316 -101 c 0
 305 -96 297 -84 297 -71 c 0
 297 -53 313 -38 331 -38 c 0
 343 -38 356 -44 370 -50 c 0
 384 -56 398 -61 410 -61 c 2
 411 -61 l 1
 431 -3 436 24 436 77 c 2
 436 91 l 2
 436 140 439 180 445 233 c 0
 447 249 461 262 478 262 c 0
 496 262 512 246 512 228 c 2xf0
446 360 m 4xe8
 446 378 462 393 480 393 c 4
 498 393 514 378 514 360 c 4
 514 342 498 326 480 326 c 4
 462 326 446 342 446 360 c 4xe8
EndSplineSet
EndChar

StartChar: uni24DA
Encoding: 46 9434 46
Width: 817
Flags: HW
HStem: -83 21G<321.5 339.5 487.5 502.5> 197 20G<481.5 496.5> 364 20G<327.5 344.5>
VStem: 290.5 67<145 373> 297.5 67<-80 7> 302.5 67<160 380>
LayerCount: 2
Fore
SplineSet
92 150 m 4
 92 -24 234 -166 408 -166 c 4
 582 -166 725 -24 725 150 c 4
 725 324 582 466 408 466 c 4
 235 466 92 323 92 150 c 4
25 150 m 4
 25 361 197 534 408 534 c 4
 619 534 792 361 792 150 c 4
 792 -61 619 -234 408 -234 c 4
 196 -234 25 -62 25 150 c 4
493.5 -83 m 0xf0
 481.5 -83 481.5 -83 469.5 -72 c 0
 456.5 -60 429.5 -37 361.5 11 c 1
 361.5 3 362.5 -22 363.5 -36 c 0
 363.5 -40 363.5 -45 364.5 -49 c 2
 364.5 -67 348.5 -83 330.5 -83 c 0
 312.5 -83 298.5 -69 297.5 -51 c 0xe8
 295.5 0 290.5 133 290.5 156 c 0xf0
 290.5 239 293.5 293 302.5 355 c 0
 304.5 372 318.5 384 335.5 384 c 0
 353.5 384 369.5 368 369.5 350 c 2
 369.5 346 l 1xe4
 361.5 291 357.5 225 357.5 156 c 2
 357.5 145 l 1
 461.5 209 476.5 217 487.5 217 c 0
 505.5 217 520.5 202 520.5 184 c 0
 520.5 161 502.5 146 429.5 108 c 0
 428.5 108 428.5 107 427.5 107 c 0
 388.5 86 388.5 86 380.5 80 c 0
 517.5 -18 526.5 -26 526.5 -50 c 0
 526.5 -68 511.5 -83 493.5 -83 c 0xf0
EndSplineSet
EndChar

StartChar: uni24DB
Encoding: 47 9435 47
Width: 817
Flags: HW
HStem: -83 21G<394 412> 364 20G<405 423>
VStem: 369 67<-80 170> 376 72<-70 378>
LayerCount: 2
Fore
SplineSet
92 150 m 4
 92 -24 234 -166 408 -166 c 4
 582 -166 725 -24 725 150 c 4
 725 324 582 466 408 466 c 4
 235 466 92 323 92 150 c 4
25 150 m 4
 25 361 197 534 408 534 c 4
 619 534 792 361 792 150 c 4
 792 -61 619 -234 408 -234 c 4
 196 -234 25 -62 25 150 c 4
414 384 m 0xd0
 432 384 448 368 448 350 c 2
 448 348 l 2xd0
 445 313 443 246 442 151 c 0
 442 47 441 7 436 -52 c 0
 435 -69 421 -83 403 -83 c 0
 385 -83 369 -67 369 -49 c 2
 369 -47 l 1xe0
 373 -13 375 46 376 151 c 2
 376 197 l 2
 376 270 377 309 381 353 c 0
 382 370 396 384 414 384 c 0xd0
EndSplineSet
EndChar

StartChar: uni24DC
Encoding: 48 9436 48
Width: 817
Flags: HW
HStem: 0 21G<212.5 236.5 582 600> 221 67<309.443 375.861 497.163 555.419> 280 20G<249 265>
VStem: 373 67<53.3148 141.002> 557 67<3.48541 33 34 218.987>
LayerCount: 2
Fore
SplineSet
92 150 m 4
 92 -24 234 -166 408 -166 c 4
 582 -166 725 -24 725 150 c 4
 725 324 582 466 408 466 c 4
 235 466 92 323 92 150 c 4
25 150 m 4
 25 361 197 534 408 534 c 4
 619 534 792 361 792 150 c 4
 792 -61 619 -234 408 -234 c 4
 196 -234 25 -62 25 150 c 4
629 149 m 0xd8
 629 127 628 112 627 96 c 0
 626 80 624 65 624 43 c 2
 624 34 l 1
 625 34 l 1
 625 16 609 0 591 0 c 0
 573 0 558 15 558 33 c 0
 557 34 l 0
 557 36 l 2
 557 43 l 2
 557 64 558 80 559 96 c 0
 560 112 562 128 562 149 c 0
 562 202 553 221 529 221 c 0xd8
 497 221 455 153 440 77 c 0
 437 62 423 50 407 50 c 0
 388 50 373 65 373 84 c 0
 373 99 376 111 379 122 c 0
 382 133 384 145 384 160 c 0
 384 184 378 204 366 219 c 1
 365 219 l 2
 364 219 364 219 363 220 c 1
 362 220 l 2
 307 220 267 171 262 97 c 0
 259 20 251 0 222 0 c 0
 203 0 188 15 188 33 c 2
 188 36 l 1
 189 46 190 47 190 48 c 0
 190 49 190 49 191 56 c 0
 192 63 193 77 196 105 c 0
 196 106 197 107 197 108 c 0
 197 109 197 109 197 110 c 2
 197 124 l 1
 202 200 208 235 225 279 c 0
 230 292 242 300 256 300 c 0xb8
 274 300 288 287 289 269 c 1
 314 280 341 287 362 287 c 0
 397 287 416 274 435 235 c 1
 462 270 494 288 529 288 c 0
 595 288 629 241 629 149 c 0xd8
EndSplineSet
EndChar

StartChar: uni24DD
Encoding: 49 9437 49
Width: 817
Flags: HW
HStem: 0 21G<301 327.5 493 511.5> 212 67<393.452 466.16> 280 20G<347 362.5>
VStem: 277.5 70<3.69803 159.638> 472.5 67<5.0066 210.498>
LayerCount: 2
Fore
SplineSet
92 150 m 4
 92 -24 234 -166 408 -166 c 4
 582 -166 725 -24 725 150 c 4
 725 324 582 466 408 466 c 4
 235 466 92 323 92 150 c 4
25 150 m 4
 25 361 197 534 408 534 c 4
 619 534 792 361 792 150 c 4
 792 -61 619 -234 408 -234 c 4
 196 -234 25 -62 25 150 c 4
539.5 122 m 0
 539.5 110 538.5 93 537.5 77 c 0
 536.5 61 535.5 44 535.5 32 c 0
 534.5 14 520.5 0 502.5 0 c 0
 483.5 0 469.5 14 469.5 33 c 2
 469.5 36 l 2
 471.5 70 472.5 99 472.5 122 c 0
 472.5 172 467.5 202 457.5 212 c 1
 452.5 212 l 2
 435.5 212 397.5 198 381.5 185 c 1
 351.5 144 349.5 99 347.5 64 c 0
 345.5 27 343.5 0 311.5 0 c 0
 290.5 0 277.5 15 277.5 38 c 0
 277.5 108 297.5 213 322.5 279 c 0
 327.5 292 340.5 300 353.5 300 c 0
 371.5 300 387.5 284 387.5 266 c 1
 386.5 265 l 1
 386.5 264 l 1
 411.5 274 433.5 279 452.5 279 c 0
 513.5 279 539.5 232 539.5 122 c 0
EndSplineSet
EndChar

StartChar: uni24DE
Encoding: 50 9438 50
Width: 817
Flags: HW
HStem: 0 67<360.263 423.479> 280 20G<413 481.5>
VStem: 291 70<69.1934 171.407> 459 67<116.842 231.505>
LayerCount: 2
Fore
SplineSet
92 150 m 4
 92 -24 234 -166 408 -166 c 4
 582 -166 725 -24 725 150 c 4
 725 324 582 466 408 466 c 4
 235 466 92 323 92 150 c 4
25 150 m 4
 25 361 197 534 408 534 c 4
 619 534 792 361 792 150 c 4
 792 -61 619 -234 408 -234 c 4
 196 -234 25 -62 25 150 c 4
374 0 m 0
 320 0 291 31 291 90 c 0
 291 198 368 294 458 300 c 1
 462 300 l 2
 501 300 526 265 526 209 c 0
 526 180 519 143 507 104 c 0
 489 53 469 29 430 12 c 0
 412 4 393 0 374 0 c 0
457 232 m 1
 405 226 358 158 358 90 c 0
 358 85 359 81 361 70 c 2
 361 69 l 2
 362 68 368 67 374 67 c 0
 390 67 411 75 423 86 c 0
 439 101 459 169 459 209 c 0
 459 216 458 225 457 232 c 1
EndSplineSet
EndChar

StartChar: uni24DF
Encoding: 51 9439 51
Width: 817
Flags: HW
HStem: -116 21G<304 322> 117 67<373 436> 350 67<365 467>
VStem: 279 67<-112 130> 288 67<-107 131 202 340> 471 67<226 346>
LayerCount: 2
Fore
SplineSet
92 150 m 4
 92 -24 234 -166 408 -166 c 4
 582 -166 725 -24 725 150 c 4
 725 324 582 466 408 466 c 4
 235 466 92 323 92 150 c 4
25 150 m 4
 25 361 197 534 408 534 c 4
 619 534 792 361 792 150 c 4
 792 -61 619 -234 408 -234 c 4
 196 -234 25 -62 25 150 c 4
471 293 m 2xe4
 471 342 466 350 431 350 c 0
 402 350 384 348 365 342 c 1
 361 309 358 282 358 268 c 0
 360 213 377 184 407 184 c 0
 432 184 470 242 471 282 c 2
 471 293 l 2xe4
431 417 m 0
 506 417 538 380 538 293 c 0
 538 200 476 117 406 117 c 0
 391 117 374 122 355 131 c 1
 355 97 l 2xec
 355 29 352 -32 346 -86 c 0
 344 -103 330 -116 313 -116 c 0
 295 -116 279 -100 279 -82 c 2
 279 -79 l 1xf4
 285 -34 288 27 288 97 c 2
 288 155 l 2xec
 288 202 289 231 291 270 c 2
 291 275 l 2
 291 313 299 371 306 384 c 0
 310 392 316 397 325 400 c 0
 359 412 392 417 431 417 c 0
EndSplineSet
EndChar

StartChar: uni24E0
Encoding: 52 9440 52
Width: 817
Flags: HW
HStem: -116 21G<459.5 477.5> 117 67<362.5 406.5> 397 20G<427.5 463.5>
VStem: 295.5 67<185 281> 434.5 68<-113 133>
LayerCount: 2
Fore
SplineSet
92 150 m 4
 92 -24 234 -166 408 -166 c 4
 582 -166 725 -24 725 150 c 4
 725 324 582 466 408 466 c 4
 235 466 92 323 92 150 c 4
25 150 m 4
 25 361 197 534 408 534 c 4
 619 534 792 361 792 150 c 4
 792 -61 619 -234 408 -234 c 4
 196 -234 25 -62 25 150 c 4
521.5 373 m 0
 521.5 297 516.5 232 511.5 167 c 0
 506.5 102 501.5 37 501.5 -39 c 0
 502.5 -50 502.5 -62 502.5 -83 c 0
 502.5 -101 486.5 -116 468.5 -116 c 0
 450.5 -116 434.5 -101 434.5 -83 c 2
 434.5 -39 l 2
 434.5 15 435.5 66 437.5 135 c 1
 424.5 124 404.5 117 385.5 117 c 0
 329.5 117 295.5 149 295.5 203 c 0
 295.5 229 298.5 241 322.5 313 c 0
 339.5 369 400.5 417 454.5 417 c 0
 472.5 417 506.5 404 514.5 394 c 0
 518.5 390 521.5 381 521.5 373 c 0
362.5 203 m 0
 362.5 188 367.5 184 385.5 184 c 0
 407.5 184 437.5 260 451.5 350 c 1
 426.5 347 394.5 319 386.5 293 c 0
 378.5 273 362.5 213 362.5 203 c 0
EndSplineSet
EndChar

StartChar: uni24E1
Encoding: 53 9441 53
Width: 817
Flags: HW
HStem: 0 21G<319.5 343.5> 280 20G<334 352 475.5 494>
VStem: 298 70<3.31485 140.471> 310 66<228.328 296.876>
LayerCount: 2
Fore
SplineSet
92 150 m 4
 92 -24 234 -166 408 -166 c 4
 582 -166 725 -24 725 150 c 4
 725 324 582 466 408 466 c 4
 235 466 92 323 92 150 c 4
25 150 m 4
 25 361 197 534 408 534 c 4
 619 534 792 361 792 150 c 4
 792 -61 619 -234 408 -234 c 4
 196 -234 25 -62 25 150 c 4
375 228 m 1xd0
 420 270 466 300 485 300 c 0
 503 300 519 284 519 266 c 0
 519 253 511 241 498 236 c 0
 477 227 437 196 403 162 c 0
 401 161 391 152 380 141 c 0
 372 130 367 100 367 65 c 0
 367 42 367 39 368 35 c 2
 368 34 l 2
 368 15 353 0 334 0 c 0
 305 0 298 17 298 85 c 0xe0
 298 111 299 123 301 142 c 0
 303 164 307 195 310 268 c 0
 311 286 325 300 343 300 c 0
 361 300 376 284 376 266 c 0
 376 242 376 235 375 228 c 1xd0
EndSplineSet
EndChar

StartChar: uni24E2
Encoding: 54 9442 54
Width: 817
Flags: HW
HStem: 0 64<309.713 424.675> 233 67<407.704 505.404>
VStem: 340 67<190.182 231.115> 437 67<79.1539 125.495>
LayerCount: 2
Fore
SplineSet
92 150 m 4
 92 -24 234 -166 408 -166 c 4
 582 -166 725 -24 725 150 c 4
 725 324 582 466 408 466 c 4
 235 466 92 323 92 150 c 4
25 150 m 4
 25 361 197 534 408 534 c 4
 619 534 792 361 792 150 c 4
 792 -61 619 -234 408 -234 c 4
 196 -234 25 -62 25 150 c 4
407 212 m 0
 407 189 436 191 460 175 c 0
 484 159 504 126 504 103 c 0
 504 45 449 0 378 0 c 0
 354 0 332 3 312 10 c 0
 298 14 288 27 288 42 c 0
 288 60 304 75 322 75 c 0
 334 75 340 73 345 70 c 0
 350 67 355 64 367 64 c 0
 400 64 437 85 437 103 c 0
 437 125 417 121 388 141 c 0
 364.254882812 157.375976562 340 190 340 212 c 0
 340 264 382 300 443 300 c 0
 494 300 529 282 529 256 c 0
 529 238 513 222 495 222 c 0
 484 222 477 225 469 228 c 0
 461 231 454 233 443 233 c 0
 419 233 407 226 407 212 c 0
EndSplineSet
EndChar

StartChar: uni24E3
Encoding: 55 9443 55
Width: 817
Flags: HW
HStem: -83 21G<396.5 440.5> 141 66<280.5 312.5 312.5 319.5 320.5 367.5> 147 68<439.5 536.5> 364 20G<398.5 416.5>
VStem: 359.5 67<-11 145> 373.5 67<22 148 271 304 347 350> 448.5 72<-10 61>
LayerCount: 2
Fore
SplineSet
92 150 m 4
 92 -24 234 -166 408 -166 c 4
 582 -166 725 -24 725 150 c 4
 725 324 582 466 408 466 c 4
 235 466 92 323 92 150 c 4
25 150 m 4
 25 361 197 534 408 534 c 4
 619 534 792 361 792 150 c 4
 792 -61 619 -234 408 -234 c 4
 196 -234 25 -62 25 150 c 4
439.5 217 m 1xb6
 445.5 217 459.5 216 473.5 215 c 0
 487.5 214 501.5 214 507.5 214 c 0
 525.5 213 539.5 199 539.5 181 c 0
 539.5 163 524.5 147 506.5 147 c 2
 504.5 147 l 2xb6
 493.5 147 481.5 148 469.5 149 c 0
 457.5 150 445.5 150 434.5 150 c 1
 427.5 78 426.5 54 426.5 20 c 0
 426.5 9 426.5 2 428.5 -12 c 1
 439.5 -1 444.5 13 448.5 27 c 0
 455.5 48 461.5 66 486.5 66 c 0
 504.5 66 520.5 51 520.5 33 c 0
 520.5 -20 464.5 -83 416.5 -83 c 0
 377.5 -83 359.5 -50 359.5 20 c 0
 359.5 48 360.5 57 367.5 148 c 1
 360.5 147 354.5 147 349.5 146 c 0
 331.5 144 331.5 144 326.5 143 c 0
 325.5 143 322.5 142 320.5 142 c 0
 319.5 141 l 0
 318.5 141 l 2
 312.5 141 l 1
 312.5 140 312.5 140 311.5 140 c 0
 293.5 140 277.5 156 277.5 174 c 0
 277.5 190 288.5 204 305.5 207 c 0xda
 307.5 207 309.5 208 310.5 208 c 0
 318.5 210 318.5 210 349.5 213 c 0
 355.5 214 361.5 214 369.5 215 c 2
 372.5 215 l 1
 374.5 238 375.5 271 375.5 304 c 0
 375.5 321 375.5 329 373.5 346 c 2
 373.5 350 l 2
 373.5 368 389.5 384 407.5 384 c 0
 425.5 384 439.5 370 440.5 353 c 2
 440.5 347 l 2
 442.5 305 442.5 305 442.5 304 c 0
 442.5 271 441.5 240 439.5 217 c 1xb6
EndSplineSet
EndChar

StartChar: uni24E4
Encoding: 56 9444 56
Width: 817
Flags: HW
HStem: 0 67<340.207 386.712> 280 20G<298 318.5 501.5 519>
VStem: 270 67<67.4636 294.95> 470 75<181 207.441> 477 68<3.48541 83 182.328 296.348>
LayerCount: 2
Fore
SplineSet
92 150 m 4
 92 -24 234 -166 408 -166 c 4
 582 -166 725 -24 725 150 c 4
 725 324 582 466 408 466 c 4
 235 466 92 323 92 150 c 4
25 150 m 4
 25 361 197 534 408 534 c 4
 619 534 792 361 792 150 c 4
 792 -61 619 -234 408 -234 c 4
 196 -234 25 -62 25 150 c 4
341 234 m 0xe8
 341 233 340 209 339 184 c 0
 338 159 337 134 337 133 c 0
 337 80 341 67 357 67 c 1
 383 77 431 126 469 181 c 0
 470 181 470 181 470 182 c 0xf0
 476 189 478 196 478 208 c 0
 478 245 478 253 477 265 c 2
 477 267 l 2xe8
 477 285 492 300 511 300 c 0
 527 300 541 288 544 272 c 2
 544 271 l 2
 546 262 547 250 547 236 c 0
 547 227 546 207 545 203 c 2xf0
 545 34 l 2
 545 16 529 0 511 0 c 0
 493 0 477 16 477 34 c 2
 477 48 l 2
 477 50 477 52 477 54 c 0
 477 56 478 59 478 61 c 2
 478 83 l 1
 424 24 389 0 357 0 c 0
 320 0 290 22 277 58 c 0
 272 73 270 90 270 118 c 2
 270 133 l 2
 270 141 271 163 272 184 c 0
 273 205 274 226 274 234 c 0
 274 253 274 256 275 261 c 2
 275 268 l 2
 275 286 289 300 307 300 c 0
 330 300 341 279 341 234 c 0xe8
EndSplineSet
EndChar

StartChar: uni24E5
Encoding: 57 9445 57
Width: 817
Flags: HW
HStem: 0 21G<387.5 410.5> 280 20G<301 316.5 500.5 516>
VStem: 276 65<227.072 296.515>
LayerCount: 2
Fore
SplineSet
92 150 m 4
 92 -24 234 -166 408 -166 c 4
 582 -166 725 -24 725 150 c 4
 725 324 582 466 408 466 c 4
 235 466 92 323 92 150 c 4
25 150 m 4
 25 361 197 534 408 534 c 4
 619 534 792 361 792 150 c 4
 792 -61 619 -234 408 -234 c 4
 196 -234 25 -62 25 150 c 4
276 266 m 0
 276 284 292 300 310 300 c 0
 323 300 336 292 341 279 c 0
 347 264 395 130 405 100 c 1
 405 105 462 247 477 281 c 0
 482 292 494 300 507 300 c 0
 525 300 541 284 541 266 c 0
 541 260 540 256 537 252 c 0
 520 219 505 176 490 135 c 0
 472 85 455 38 439 18 c 0
 429 6 417 0 404 0 c 0
 371 0 358 22 316 148 c 0
 298 202 291 221 279 254 c 0
 277 258 276 262 276 266 c 0
EndSplineSet
EndChar

StartChar: uni24E6
Encoding: 58 9446 58
Width: 817
Flags: HW
HStem: 0 21G<262 303.5 483 523> 280 20G<200.5 223.5 599.5 616.5>
VStem: 574.5 67<182.022 296.385>
LayerCount: 2
Fore
SplineSet
92 150 m 4
 92 -24 234 -166 408 -166 c 4
 582 -166 725 -24 725 150 c 4
 725 324 582 466 408 466 c 4
 235 466 92 323 92 150 c 4
25 150 m 4
 25 361 197 534 408 534 c 4
 619 534 792 361 792 150 c 4
 792 -61 619 -234 408 -234 c 4
 196 -234 25 -62 25 150 c 4
193.5 173 m 1
 193.5 176 l 1
 188.5 215 180.5 247 177.5 257 c 0
 177.5 259 176.5 260 176.5 260 c 0
 175.5 263 175.5 263 175.5 266 c 0
 175.5 284 191.5 300 209.5 300 c 0
 237.5 300 242.5 288 259.5 182 c 0
 272.5 105 276.5 91 284.5 76 c 1
 298.5 97 308.5 113 317.5 127 c 0
 331.5 150 342.5 168 365.5 192 c 0
 391.5 218 412.5 229 436.5 229 c 0
 479.5 229 498.5 198 504.5 115 c 0
 507.5 83 508.5 77 510.5 68 c 1
 519.5 72 529.5 88 538.5 114 c 0
 543.5 127 543.5 127 574.5 274 c 0
 577.5 289 591.5 300 607.5 300 c 0
 625.5 300 641.5 284 641.5 266 c 0
 641.5 241 603.5 90 590.5 66 c 0
 569.5 22 540.5 0 505.5 0 c 0
 460.5 0 443.5 28 437.5 114 c 0
 434.5 144 434.5 151 431.5 160 c 1
 410.5 149 391.5 119 372.5 87 c 0
 347.5 45 321.5 0 285.5 0 c 0
 238.5 0 215.5 43 193.5 173 c 1
EndSplineSet
EndChar

StartChar: uni24E7
Encoding: 59 9447 59
Width: 817
Flags: HW
HStem: 0 21G<307.5 326 486.5 500.5> 280 20G<312.5 330.5 491 509.5>
VStem: 283.5 250
LayerCount: 2
Fore
SplineSet
92 150 m 4
 92 -24 234 -166 408 -166 c 4
 582 -166 725 -24 725 150 c 4
 725 324 582 466 408 466 c 4
 235 466 92 323 92 150 c 4
25 150 m 4
 25 361 197 534 408 534 c 4
 619 534 792 361 792 150 c 4
 792 -61 619 -234 408 -234 c 4
 196 -234 25 -62 25 150 c 4
290.5 55 m 0
 295.5 60 322.5 96 358.5 146 c 1
 302.5 230 287.5 255 287.5 266 c 0
 287.5 284 303.5 300 321.5 300 c 0
 339.5 300 343.5 296 369.5 253 c 0
 378.5 237 385.5 228 391.5 219 c 0
 394.5 214 397.5 209 400.5 204 c 1
 454.5 274 481.5 300 500.5 300 c 0
 518.5 300 533.5 285 533.5 267 c 0
 533.5 256 530.5 248 523.5 242 c 0
 499.5 221 459.5 174 440.5 146 c 1
 462.5 117 484.5 91 516.5 56 c 0
 521.5 50 524.5 42 524.5 33 c 0
 524.5 15 509.5 0 491.5 0 c 0
 481.5 0 472.5 4 466.5 11 c 0
 444.5 36 430.5 52 400.5 89 c 1
 343.5 9 335.5 0 316.5 0 c 0
 298.5 0 283.5 15 283.5 33 c 0
 283.5 43 285.5 50 290.5 55 c 0
EndSplineSet
EndChar

StartChar: uni24E8
Encoding: 60 9448 60
Width: 817
Flags: HW
HStem: -116 67<333.5 413.5> 117 67<383.5 445.5> 397 20G<334.5 355.5 518.5 534.5>
VStem: 299.5 67<201 347> 307.5 67<251 413> 492.5 66<317 394 394 414>
LayerCount: 2
Fore
SplineSet
92 150 m 4
 92 -24 234 -166 408 -166 c 4
 582 -166 725 -24 725 150 c 4
 725 324 582 466 408 466 c 4
 235 466 92 323 92 150 c 4
25 150 m 4
 25 361 197 534 408 534 c 4
 619 534 792 361 792 150 c 4
 792 -61 619 -234 408 -234 c 4
 196 -234 25 -62 25 150 c 4
299.5 250 m 0xf4
 299.5 266 301.5 282 303.5 299 c 0
 305.5 316 307.5 332 307.5 348 c 2
 307.5 387 l 2
 307.5 403 324.5 417 344.5 417 c 0
 367.5 417 374.5 401 374.5 348 c 0xec
 374.5 332 372.5 316 370.5 299 c 0
 368.5 282 366.5 266 366.5 250 c 0
 366.5 215 391.5 184 419.5 184 c 0
 434.5 184 451.5 206 460.5 237 c 1
 475.5 348 489.5 384 492.5 392 c 0
 492.5 393 493.5 394 493.5 394 c 0
 493.5 404 511.5 417 525.5 417 c 0
 543.5 417 558.5 402 558.5 383 c 0
 558.5 372 553.5 354 548.5 336 c 0
 543.5 317 537.5 298 536.5 284 c 0
 534.5 268 531.5 249 525.5 223 c 2
 521.5 187 l 2
 499.5 -13 486.5 -62 448.5 -89 c 0
 421.5 -108 399.5 -116 376.5 -116 c 0
 347.5 -116 324.5 -106 274.5 -73 c 0
 264.5 -66 258.5 -56 258.5 -45 c 0
 258.5 -27 274.5 -11 292.5 -11 c 0
 305.5 -11 319.5 -20 334.5 -30 c 0
 349.5 -40 363.5 -49 376.5 -49 c 0
 384.5 -49 395.5 -44 409.5 -34 c 0
 421.5 -26 435.5 34 445.5 121 c 1
 440.5 118 431.5 117 419.5 117 c 0
 353.5 117 299.5 177 299.5 250 c 0xf4
EndSplineSet
EndChar

StartChar: uni24E9
Encoding: 61 9449 61
Width: 817
Flags: HW
HStem: 2 69<362.5 554.015> 230 70<321.861 437.5>
VStem: 259.5 298
LayerCount: 2
Fore
SplineSet
92 150 m 4
 92 -24 234 -166 408 -166 c 4
 582 -166 725 -24 725 150 c 4
 725 324 582 466 408 466 c 4
 235 466 92 323 92 150 c 4
25 150 m 4
 25 361 197 534 408 534 c 4
 619 534 792 361 792 150 c 4
 792 -61 619 -234 408 -234 c 4
 196 -234 25 -62 25 150 c 4
299.5 208 m 1
 294.5 208 l 1
 294.5 207 294.5 207 293.5 207 c 0
 275.5 207 259.5 223 259.5 241 c 0
 259.5 256 271.5 271 287.5 274 c 0
 385.5 294 430.5 300 471.5 300 c 0
 502.5 300 520.5 286 520.5 262 c 0
 520.5 224 484.5 174 412.5 113 c 0
 384.5 89 374.5 80 362.5 67 c 1
 364.5 67 l 2
 385.5 67 406.5 68 427.5 69 c 0
 448.5 70 469.5 71 490.5 71 c 0
 540.5 71 557.5 62 557.5 36 c 0
 557.5 18 541.5 2 523.5 2 c 2
 522.5 2 l 2
 519.5 2 516.5 2 514.5 2 c 0
 512.5 2 509.5 3 506.5 3 c 0
 503.5 3 500.5 4 498.5 4 c 0
 496.5 4 493.5 4 490.5 4 c 0
 488.5 4 458.5 3 427.5 2 c 0
 396.5 1 366.5 0 364.5 0 c 0
 303.5 0 280.5 14 280.5 49 c 0
 280.5 78 292.5 93 369.5 162 c 0
 414.5 203 428.5 216 437.5 230 c 1
 433.5 230 l 2
 431.5 230 427.5 230 423.5 229 c 0
 402.5 226 358.5 220 299.5 208 c 1
EndSplineSet
EndChar
